<svg xmlns="http://www.w3.org/2000/svg" xmlns:xlink="http://www.w3.org/1999/xlink" xmlns:lucid="lucid" width="821" height="1168"><g transform="translate(1178 934)" lucid:page-tab-id="0_0"><path d="M-986.66-715.56a12 12 0 0 1 13.32 0l46.68 31.12a5.33 5.33 0 0 1 0 8.88l-46.68 31.12a12 12 0 0 1-13.32 0l-46.68-31.12a5.33 5.33 0 0 1 0-8.88z" stroke="#4247a8" stroke-width="4" fill="#fff"/><use xlink:href="#a" transform="matrix(1,0,0,1,-1035,-715) translate(29.43401234567901 20.89888888888889)"/><use xlink:href="#b" transform="matrix(1,0,0,1,-1035,-715) translate(39.89697530864198 32.89888888888889)"/><use xlink:href="#c" transform="matrix(1,0,0,1,-1035,-715) translate(18.631543209876543 44.89888888888889)"/><path d="M-1059.03-552.04l.14 1.76.42 1.7.66 1.58.9 1.48 1.13 1.3 1.32 1.14 1.48.9 1.6.66 1.68.4 1.76.14h88.5v1.96h-88.58l-2-.16-1.97-.48-1.9-.78-1.73-1.06-1.55-1.32-1.32-1.55-1.06-1.74-.78-1.9-.48-1.97-.15-2V-618h1.94zm20.3-127h-9.23l-1.76.15-1.7.42-1.58.66-1.48.9-1.3 1.13-1.14 1.32-.9 1.48-.66 1.6-.4 1.68-.14 1.76v31.28h-1.95v-31.36l.15-2 .48-1.97.78-1.9 1.06-1.73 1.32-1.55 1.55-1.32 1.74-1.06 1.9-.78 1.97-.48 2-.15h9.3z" stroke="#e81313" stroke-width=".05" fill="#e81313"/><path d="M-1037.73-680l.1.98h-1.12V-681h1.12z" fill="#e81313"/><path stroke="#e81313" stroke-width=".05" fill="#e81313"/><path d="M-944.2-540l-14.26 4.63v-9.26z" fill="#e81313"/><path d="M-941.04-540l-18.4 5.98v-11.96zm-16.44 3.3l10.13-3.3-10.13-3.3z" stroke="#e81313" stroke-width=".05" fill="#e81313"/><use xlink:href="#d" transform="matrix(1,0,0,1,-1071.645011728395,-636.6845818075682) translate(0 12.444444444444446)"/><path d="M-940.96-572a8 8 0 0 1 8-8h104.48a8 8 0 0 1 8 8v64a8 8 0 0 1-8 8h-104.48a8 8 0 0 1-8-8z" stroke="#000" stroke-opacity="0" stroke-width="2" fill="#5358d3"/><use xlink:href="#e" transform="matrix(1,0,0,1,-935.9573859611992,-575) translate(5.203703703703695 18.59722222222222)"/><use xlink:href="#f" transform="matrix(1,0,0,1,-935.9573859611992,-575) translate(54.53703703703704 18.59722222222222)"/><use xlink:href="#g" transform="matrix(1,0,0,1,-935.9573859611992,-575) translate(84.16666666666667 18.59722222222222)"/><use xlink:href="#h" transform="matrix(1,0,0,1,-935.9573859611992,-575) translate(13.104938271604937 37.797222222222224)"/><use xlink:href="#i" transform="matrix(1,0,0,1,-935.9573859611992,-575) translate(32.858024691358025 37.797222222222224)"/><use xlink:href="#j" transform="matrix(1,0,0,1,-935.9573859611992,-575) translate(2.2407407407407334 56.99722222222223)"/><path d="M-845.7-832a8 8 0 0 1 8-8h194.44a8 8 0 0 1 8 8v53.75a8 8 0 0 1-8 8H-837.7a8 8 0 0 1-8-8z" stroke="#000" stroke-opacity="0" stroke-width="2" fill="#4247a8"/><use xlink:href="#k" transform="matrix(1,0,0,1,-840.6931900273638,-835) translate(43.3395061728395 32.97222222222222)"/><use xlink:href="#l" transform="matrix(1,0,0,1,-840.6931900273638,-835) translate(86.69753086419753 32.97222222222222)"/><use xlink:href="#m" transform="matrix(1,0,0,1,-840.6931900273638,-835) translate(115.24074074074073 32.97222222222222)"/><path d="M-749.52-756.9l-.16 1.94-.45 1.9-.75 1.8-1.03 1.68-1.28 1.5-1.5 1.26-1.66 1.02-1.8.75-1.9.46-1.94.16h-209.05l-1.35.1-1.3.32-1.22.5-1.13.7-1 .86-.88 1-.7 1.15-.5 1.22-.32 1.3-.1 1.35-.95-.07.1-1.44.36-1.44.55-1.37.77-1.26.96-1.13 1.13-.96 1.27-.76 1.37-.57 1.44-.35 1.45-.1h209.05l1.82-.15 1.76-.43 1.67-.7 1.54-.93 1.38-1.17 1.17-1.37.95-1.54.7-1.68.4-1.75.15-1.83v-12.82h.96z" stroke="#333" stroke-width=".05" fill="#333"/><path d="M-749.52-769.74h-.96v-.5h.96z" fill="#333"/><path stroke="#333" stroke-width=".05" fill="#333"/><path d="M-980-721.2l-4.63-14.26h9.26z" fill="#333"/><path d="M-980-719.66l-5.3-16.28h10.6zm-3.98-15.33l3.98 12.26 3.98-12.25z" stroke="#333" stroke-width=".05" fill="#333"/><path d="M-756.66-715.56a12 12 0 0 1 13.32 0l46.68 31.12a5.33 5.33 0 0 1 0 8.88l-46.68 31.12a12 12 0 0 1-13.32 0l-46.68-31.12a5.33 5.33 0 0 1 0-8.88z" stroke="#4247a8" stroke-width="4" fill="#fff"/><use xlink:href="#n" transform="matrix(1,0,0,1,-805,-715) translate(24.51117283950617 30.76388888888889)"/><use xlink:href="#b" transform="matrix(1,0,0,1,-805,-715) translate(55.282777777777774 30.76388888888889)"/><use xlink:href="#c" transform="matrix(1,0,0,1,-805,-715) translate(18.63154320987654 42.763888888888886)"/><path d="M-750-769.75v33.78" stroke="#333" fill="none"/><path d="M-749.52-769.74h-.96v-.5h.96z" stroke="#333" stroke-width=".05" fill="#333"/><path d="M-750-721.2l-4.63-14.26h9.26z" stroke="#333" fill="#333"/><path d="M-526.66-715.56a12 12 0 0 1 13.32 0l46.68 31.12a5.33 5.33 0 0 1 0 8.88l-46.68 31.12a12 12 0 0 1-13.32 0l-46.68-31.12a5.33 5.33 0 0 1 0-8.88z" stroke="#4247a8" stroke-width="4" fill="#fff"/><use xlink:href="#o" transform="matrix(1,0,0,1,-575,-715) translate(30.65314814814815 20.898888888888887)"/><use xlink:href="#p" transform="matrix(1,0,0,1,-575,-715) translate(39.89697530864198 32.898888888888884)"/><use xlink:href="#q" transform="matrix(1,0,0,1,-575,-715) translate(18.63154320987655 44.898888888888884)"/><path d="M-749.52-756.93l.14 1.82.42 1.75.7 1.67.94 1.54 1.17 1.37 1.38 1.18 1.54.95 1.67.7 1.76.42 1.82.14h209.05l1.45.12 1.44.35 1.37.56 1.26.78 1.12.97.96 1.12.77 1.25.56 1.37.36 1.44.1 1.44-.93.07-.1-1.36-.32-1.28-.5-1.23-.7-1.15-.86-1-1-.87-1.14-.7-1.23-.5-1.3-.32-1.34-.1h-209.05l-1.93-.15-1.9-.45-1.8-.75-1.68-1.02-1.5-1.27-1.26-1.48-1.02-1.67-.75-1.8-.45-1.9-.15-1.95v-12.85h.95z" stroke="#333" stroke-width=".05" fill="#333"/><path d="M-749.52-769.74h-.96v-.5h.96z" fill="#333"/><path stroke="#333" stroke-width=".05" fill="#333"/><path d="M-520-721.2l-4.63-14.26h9.26z" fill="#333"/><path d="M-520-719.66l-5.3-16.28h10.6zm-3.98-15.33l3.98 12.26 3.98-12.25z" stroke="#333" stroke-width=".05" fill="#333"/><path d="M-690-572a8 8 0 0 1 8-8h104.48a8 8 0 0 1 8 8v64a8 8 0 0 1-8 8H-682a8 8 0 0 1-8-8z" stroke="#000" stroke-opacity="0" stroke-width="2" fill="#5358d3"/><use xlink:href="#r" transform="matrix(1,0,0,1,-685,-575) translate(9.179012345679006 18.59722222222222)"/><use xlink:href="#f" transform="matrix(1,0,0,1,-685,-575) translate(50.56172839506173 18.59722222222222)"/><use xlink:href="#g" transform="matrix(1,0,0,1,-685,-575) translate(80.19135802469137 18.59722222222222)"/><use xlink:href="#h" transform="matrix(1,0,0,1,-685,-575) translate(13.104938271604937 37.797222222222224)"/><use xlink:href="#i" transform="matrix(1,0,0,1,-685,-575) translate(32.858024691358025 37.797222222222224)"/><use xlink:href="#j" transform="matrix(1,0,0,1,-685,-575) translate(2.2407407407407334 56.99722222222223)"/><path d="M-741.96-629.9l2 .15 1.97.47 1.9.78 1.73 1.07 1.55 1.32 1.32 1.54 1.06 1.73.78 1.9.48 1.97.15 2v64.92l.14 1.76.42 1.7.66 1.58.9 1.48 1.13 1.3 1.32 1.14 1.48.9 1.6.66 1.68.4 1.76.14h9.46v1.96h-9.54l-2-.16-1.97-.48-1.9-.78-1.73-1.06-1.55-1.32-1.32-1.55-1.06-1.74-.78-1.9-.48-1.97-.15-2v-64.92l-.14-1.76-.42-1.68-.66-1.6-.9-1.47-1.13-1.33-1.32-1.12-1.48-.9-1.6-.67-1.68-.4-1.76-.14h-116.6v-1.95zm-168-50.92l1.97.48 1.9.78 1.73 1.06 1.55 1.32 1.32 1.55 1.06 1.74.78 1.9.48 1.97.15 2v27.06l.14 1.76.42 1.67.66 1.6.9 1.47 1.13 1.32 1.32 1.12 1.48.9 1.6.67 1.65.4v1.96h-.28l-1.98-.5-1.9-.77-1.73-1.06-1.55-1.33-1.32-1.54-1.06-1.74-.78-1.88-.48-1.98-.15-2v-27.06l-.14-1.76-.42-1.7-.66-1.58-.9-1.48-1.13-1.3-1.32-1.14-1.48-.9-1.6-.66-1.68-.4-1.76-.14h-9.23V-681h9.3z" stroke="#e81313" stroke-width=".05" fill="#e81313"/><path d="M-921.25-679.02h-1.12l.1-.98-.1-.98h1.12z" fill="#e81313"/><path stroke="#e81313" stroke-width=".05" fill="#e81313"/><path d="M-693.24-540l-14.26 4.63v-9.26z" fill="#e81313"/><path d="M-690.08-540l-18.4 5.98v-11.96zm-16.45 3.3l10.14-3.3-10.13-3.3z" stroke="#e81313" stroke-width=".05" fill="#e81313"/><use xlink:href="#s" transform="matrix(1,0,0,1,-889.749490446847,-638.2666166666668) translate(0 12.444444444444446)"/><path d="M-840.65-670.67h2l-.24.95-.13 1.76v46l-.15 2-.48 1.97-.78 1.9-1.06 1.73-1.32 1.55-1.55 1.32-1.74 1.06-1.9.78-1.97.48-2 .15h-17.2l-1.7.14-1.6.4-1.53.63-1.4.86-1.26 1.06-1.07 1.26-.86 1.4-.63 1.53-.38 1.6-.15 1.73-1.94-.16.16-1.87.45-1.9.76-1.82 1.03-1.67 1.26-1.48 1.5-1.27 1.66-1.02 1.8-.75 1.9-.45 1.92-.15h17.22l1.76-.14 1.7-.42 1.58-.66 1.48-.9 1.3-1.13 1.14-1.32.9-1.48.66-1.6.4-1.68.14-1.76v-46l.16-2 .17-.7zm31.92-8.36h-8.63v-1.95h8.63z" stroke="#d916a8" stroke-width=".05" fill="#d916a8"/><path d="M-807.73-680l.1.98h-1.12V-681h1.12z" fill="#d916a8"/><path stroke="#d916a8" stroke-width=".05" fill="#d916a8"/><path d="M-880.72-583.24l-4.63-14.26h9.27z" fill="#d916a8"/><path d="M-880.72-580.08l-5.98-18.4h11.96zm-3.3-16.45l3.3 10.14 3.3-10.13z" stroke="#d916a8" stroke-width=".05" fill="#d916a8"/><use xlink:href="#d" transform="matrix(1,0,0,1,-840.6469255084476,-689.3333333333334) translate(0 12.444444444444446)"/><path d="M-632.58-676.9l1.32 1.54 1.06 1.74.78 1.88.48 1.98.15 2v69.26h-1.94v-69.2l-.13-1.76-.4-1.68-.67-1.6-.9-1.47-.7-.8v-2.72zm-58.72-1.86v-1.95h26.66v1.94z" stroke="#d916a8" stroke-width=".05" fill="#d916a8"/><path d="M-691.27-678.76h-1.12l.13-1.24-.07-.7h1.07z" fill="#d916a8"/><path stroke="#d916a8" stroke-width=".05" fill="#d916a8"/><path d="M-629.76-583.24l-4.64-14.26h9.27z" fill="#d916a8"/><path d="M-629.76-580.08l-5.98-18.4h11.96zm-3.3-16.45l3.3 10.14 3.3-10.13z" stroke="#d916a8" stroke-width=".05" fill="#d916a8"/><use xlink:href="#s" transform="matrix(1,0,0,1,-664.637112653291,-689.0669076724201) translate(0 12.444444444444446)"/><path d="M-598.9-669.72l-.13 1.76v46l-.15 2-.48 1.97-.78 1.9-1.06 1.73-1.32 1.55-1.55 1.32-1.74 1.06-1.9.78-1.97.48-2 .15h-136l-1.75.14-1.7.42-1.58.66-1.48.9-1.3 1.13-1.14 1.32-.9 1.48-.66 1.6-.4 1.68-.14 1.76v46l-.16 2-.48 1.97-.78 1.9-1.06 1.73-1.32 1.55-1.55 1.32-1.74 1.06-1.9.78-1.97.48-2 .15h-30v-1.95h29.93l1.76-.13 1.7-.42 1.58-.66 1.48-.9 1.3-1.13 1.14-1.32.9-1.48.66-1.6.4-1.68.14-1.76v-46l.16-2 .48-1.97.78-1.9 1.06-1.73 1.32-1.55 1.55-1.32 1.74-1.06 1.9-.78 1.97-.48 2-.15h136l1.75-.14 1.7-.42 1.58-.66 1.48-.9 1.3-1.13 1.14-1.32.9-1.48.66-1.6.4-1.68.14-1.76v-46l.16-2 .16-.63h2zm24.43-9.3h-5.5V-681h5.5z" stroke="#008a0e" stroke-width=".05" fill="#008a0e"/><path d="M-573.47-679.02h-1.03V-681h1.03z" stroke="#008a0e" stroke-width=".05" fill="#008a0e"/><path d="M-802.98-535.37l-14.26-4.63 14.26-4.63z" fill="#008a0e"/><path d="M-802-534.02l-18.4-5.98 18.4-5.98zm-12.1-5.98l10.15 3.3v-6.6z" stroke="#008a0e" stroke-width=".05" fill="#008a0e"/><use xlink:href="#d" transform="matrix(1,0,0,1,-603.2461931909257,-689.3333333333334) translate(0 12.444444444444446)"/><path d="M-419.18-670.03l.16 2v116.07l-.16 2-.48 1.97-.78 1.9-1.06 1.73-1.32 1.55-1.55 1.32-1.74 1.06-1.9.78-1.97.48-2 .15H-551v-1.95h118.98l1.76-.13 1.7-.42 1.58-.66 1.48-.9 1.3-1.13 1.14-1.32.9-1.48.66-1.6.4-1.68.14-1.76v-115.92l-.13-1.76-.24-.95h2zm-37.83-9v-1.95h9.44v1.96z" stroke="#008a0e" stroke-width=".05" fill="#008a0e"/><path d="M-457-679.02h-1V-681h1z" stroke="#008a0e" stroke-width=".05" fill="#008a0e"/><path d="M-552.02-535.37l-14.26-4.63 14.26-4.63z" fill="#008a0e"/><path d="M-551.04-534.02l-18.4-5.98 18.4-5.98zm-12.1-5.98l10.15 3.3v-6.6z" stroke="#008a0e" stroke-width=".05" fill="#008a0e"/><use xlink:href="#s" transform="matrix(1,0,0,1,-447.55555555555554,-689.3333333333334) translate(0 12.444444444444446)"/><path d="M-926.66-455.56a12 12 0 0 1 13.32 0l46.68 31.12a5.33 5.33 0 0 1 0 8.88l-46.68 31.12a12 12 0 0 1-13.32 0l-46.68-31.12a5.33 5.33 0 0 1 0-8.88z" stroke="#4247a8" stroke-width="4" fill="#fff"/><use xlink:href="#t" transform="matrix(1,0,0,1,-975,-455) translate(35.62228395061729 26.38888888888889)"/><use xlink:href="#u" transform="matrix(1,0,0,1,-975,-455) translate(8.137716049382712 38.388888888888886)"/><use xlink:href="#v" transform="matrix(1,0,0,1,-975,-455) translate(59.927839506172845 38.388888888888886)"/><use xlink:href="#w" transform="matrix(1,0,0,1,-975,-455) translate(27.56672839506172 50.388888888888886)"/><path d="M-846.2-804.65h-221.78l-1.82.14-1.76.4-1.67.7-1.54.95-1.38 1.18-1.17 1.37-.95 1.54-.7 1.67-.4 1.77-.16 1.82v361.08l.15 1.82.42 1.76.7 1.67.94 1.54 1.17 1.38 1.38 1.17 1.54.95 1.67.7 1.76.4 1.82.15h73.87v.96h-73.92l-1.93-.16-1.9-.45-1.8-.75-1.68-1.03-1.5-1.28-1.26-1.5-1.02-1.66-.75-1.8-.45-1.9-.15-1.94v-361.16l.15-1.94.45-1.9.75-1.8 1.03-1.68 1.28-1.5 1.5-1.26 1.66-1.02 1.8-.75 1.9-.45 1.94-.15h221.83z" stroke="#333" stroke-width=".05" fill="#333"/><path d="M-845.7-804.65h-.5v-.95h.5z" fill="#333"/><path stroke="#333" stroke-width=".05" fill="#333"/><path d="M-979.35-420l-14.26 4.63v-9.26z" fill="#333"/><path d="M-977.8-420l-16.3 5.3v-10.6zm-15.34 3.98l12.26-3.98-12.26-3.98zM-410.05-805.45l1.9.46 1.8.76 1.68 1.02 1.5 1.27 1.26 1.5 1.02 1.66.75 1.82.45 1.9.16 1.94v361.16l-.16 1.93-.45 1.9-.75 1.8-1.03 1.68-1.28 1.5-1.5 1.26-1.66 1.02-1.8.75-1.9.45-1.94.16h-86.42v-.96h86.38l1.82-.14 1.76-.42 1.67-.7 1.54-.94 1.38-1.17 1.17-1.38.95-1.54.7-1.67.4-1.76.15-1.82v-361.1l-.14-1.8-.42-1.77-.7-1.66-.94-1.54-1.17-1.37-1.38-1.18-1.54-.94-1.67-.7-1.76-.4-1.82-.15h-222.74v-.95h222.78z" stroke="#333" stroke-width=".05" fill="#333"/><path d="M-634.75-804.65h-.5v-.95h.5z" fill="#333"/><path stroke="#333" stroke-width=".05" fill="#333"/><path d="M-498.9-415.37l-14.27-4.63 14.27-4.63z" fill="#333"/><path d="M-498.43-414.7l-16.28-5.3 16.27-5.3zm-13.2-5.3l12.25 3.98v-7.96z" stroke="#333" stroke-width=".05" fill="#333"/><path d="M-905.64-459.02h-13.78v-1.96h13.77zm27.03-12.94l-.16 2-.48 1.97-.78 1.9-1.06 1.73-1.27 1.5v-3.16l.6-.97.65-1.6.4-1.68.14-1.76v-9.46h1.95z" stroke="#e08fff" stroke-width=".05" fill="#e08fff"/><path d="M-919.02-459.52l-.98-.06-.98.06v-1.1h1.96z" fill="#e08fff"/><path stroke="#e08fff" stroke-width=".05" fill="#e08fff"/><path d="M-874.95-482.5h-9.27l4.64-14.26z" fill="#e08fff"/><path d="M-873.6-481.52h-11.96l5.98-18.4zm-9.27-1.95h6.58l-3.28-10.14z" stroke="#e08fff" stroke-width=".05" fill="#e08fff"/><use xlink:href="#d" transform="matrix(1,0,0,1,-905.645061728395,-469.33338442145003) translate(0 12.444444444444446)"/><path d="M-853-419.02h-8.27v-1.96h8.26zm224.2-62.4l-.04.62-.16.7-.27.63-.37.6-.45.54-.53.45-.6.37-.65.26-.68.16-.66.06h-104.74l-1.76.13-1.7.42-1.58.66-1.48.9-1.3 1.13-1.14 1.32-.9 1.48-.66 1.6-.4 1.68-.14 1.76v34l-.16 2-.48 1.97-.78 1.9-1.06 1.73-1.32 1.55-1.55 1.32-1.74 1.06-1.9.78-1.97.48-2 .16h-59.92v-1.96h59.86l1.76-.13 1.7-.42 1.58-.66 1.48-.9 1.3-1.13 1.14-1.32.9-1.48.66-1.6.4-1.68.14-1.76v-34l.16-2 .48-1.97.78-1.9 1.06-1.73 1.32-1.55 1.55-1.32 1.74-1.06 1.9-.78 1.97-.48 2-.16h104.73l.43-.03.4-.1.36-.15.32-.2.3-.27.26-.3.2-.33.16-.37.1-.38.03-.47z" stroke="#e08fff" stroke-width=".05" fill="#e08fff"/><path d="M-861.25-419.02h-1.12l.1-.98-.1-.98h1.12z" fill="#e08fff"/><path stroke="#e08fff" stroke-width=".05" fill="#e08fff"/><path d="M-625.13-482.5h-9.27l4.64-14.26z" fill="#e08fff"/><path d="M-623.78-481.52h-11.96l5.98-18.4zm-9.27-1.95h6.58l-3.3-10.14z" stroke="#e08fff" stroke-width=".05" fill="#e08fff"/><use xlink:href="#s" transform="matrix(1,0,0,1,-853.006022458399,-429.3333333333333) translate(0 12.444444444444446)"/><path d="M-635.26-439.73a6 6 0 0 1 6-6h108.47a6 6 0 0 1 6 6v39.46a6 6 0 0 1-6 6h-108.46a6 6 0 0 1-6-6z" stroke="#000" stroke-opacity="0" stroke-width="2" fill="#5358d3"/><use xlink:href="#x" transform="matrix(1,0,0,1,-623.2641959338354,-433.73333333333335) translate(2.6111111111111285 12.416666666666664)"/><use xlink:href="#y" transform="matrix(1,0,0,1,-623.2641959338354,-433.73333333333335) translate(46.24074074074074 12.416666666666664)"/><use xlink:href="#z" transform="matrix(1,0,0,1,-623.2641959338354,-433.73333333333335) translate(5.592592592592609 26.816666666666663)"/><use xlink:href="#A" transform="matrix(1,0,0,1,-623.2641959338354,-433.73333333333335) translate(47.81481481481482 26.816666666666663)"/><path d="M-580.02-356.68a9.04 9.04 0 0 1 10 0l50.24 33.36a3.98 3.98 0 0 1 0 6.64l-50.25 33.36a9.04 9.04 0 0 1-10 0l-50.24-33.36a3.98 3.98 0 0 1 0-6.64z" stroke="#282c33" stroke-width="2" fill="#fff"/><use xlink:href="#B" transform="matrix(1,0,0,1,-630.2641959266132,-355) translate(47.63462962962963 21.604166666666664)"/><use xlink:href="#C" transform="matrix(1,0,0,1,-630.2641959266132,-355) translate(15.060555555555576 37.60416666666666)"/><use xlink:href="#D" transform="matrix(1,0,0,1,-630.2641959266132,-355) translate(40.208703703703705 53.60416666666666)"/><path d="M-575.02-393.77v18.2" stroke="#3a414a" fill="none"/><path d="M-574.55-393.75h-.95v-.52h.95z" stroke="#3a414a" stroke-width=".05" fill="#3a414a"/><path d="M-575.02-360.8l-4.64-14.27h9.27z" stroke="#3a414a" fill="#3a414a"/><path d="M-665.3-319.52h-35.8v-.96h35.8zm31.75 0h-5.14v-.96h5.15z" stroke="#3a414a" stroke-width=".05" fill="#3a414a"/><path d="M-633.05-320l.05.48h-.56v-.96h.56z" fill="#3a414a"/><path stroke="#3a414a" stroke-width=".05" fill="#3a414a"/><path d="M-701.6-315.37l-14.26-4.63 14.27-4.63z" fill="#3a414a"/><path d="M-701.12-314.7l-16.28-5.3 16.28-5.3zm-13.2-5.3l12.25 3.98v-7.96z" stroke="#3a414a" stroke-width=".05" fill="#3a414a"/><use xlink:href="#E" transform="matrix(1,0,0,1,-665.3086419753087,-330.6666666666667) translate(0 14.222222222222223)"/><path d="M-476.52-181.5l-.08.98-.24 1-.4.93-.52.87-.66.78-.77.66-.86.54-.94.4-1 .22-.98.08h-213.4v-.95h213.36l.88-.08.85-.2.8-.33.75-.47.66-.56.57-.66.45-.73.33-.8.2-.84.08-.88V-303h.95zm-39.98-138.02v-.96h21.72v.96z" stroke="#3a414a" stroke-width=".05" fill="#3a414a"/><path d="M-516.5-319.52h-.55l.05-.48-.05-.48h.56z" fill="#3a414a"/><path stroke="#3a414a" stroke-width=".05" fill="#3a414a"/><path d="M-696.88-170.9l-14.26-4.63 14.26-4.64z" fill="#3a414a"/><path d="M-696.4-170.24l-16.28-5.3 16.28-5.28zm-13.2-5.3l12.25 4v-7.97z" stroke="#3a414a" stroke-width=".05" fill="#3a414a"/><use xlink:href="#F" transform="matrix(1,0,0,1,-494.7766529592806,-324.3227448075661) translate(0 14.222222222222223)"/><path d="M-833.24-342a8 8 0 0 1 8-8h104.48a8 8 0 0 1 8 8v64a8 8 0 0 1-8 8h-104.48a8 8 0 0 1-8-8z" stroke="#000" stroke-opacity="0" stroke-width="2" fill="#5358d3"/><use xlink:href="#e" transform="matrix(1,0,0,1,-828.2393464902998,-345) translate(5.203703703703695 18.59722222222222)"/><use xlink:href="#f" transform="matrix(1,0,0,1,-828.2393464902998,-345) translate(54.53703703703704 18.59722222222222)"/><use xlink:href="#g" transform="matrix(1,0,0,1,-828.2393464902998,-345) translate(84.16666666666667 18.59722222222222)"/><use xlink:href="#h" transform="matrix(1,0,0,1,-828.2393464902998,-345) translate(13.104938271604937 37.797222222222224)"/><use xlink:href="#i" transform="matrix(1,0,0,1,-828.2393464902998,-345) translate(32.858024691358025 37.797222222222224)"/><use xlink:href="#j" transform="matrix(1,0,0,1,-828.2393464902998,-345) translate(2.2407407407407334 56.99722222222223)"/><path d="M-833.24-212a8 8 0 0 1 8-8h104.48a8 8 0 0 1 8 8v72.93a8 8 0 0 1-8 8h-104.48a8 8 0 0 1-8-8z" stroke="#000" stroke-opacity="0" stroke-width="2" fill="#5358d3"/><use xlink:href="#G" transform="matrix(1,0,0,1,-828.2393464902998,-215) translate(31.37654320987654 16.69097222222222)"/><use xlink:href="#H" transform="matrix(1,0,0,1,-828.2393464902998,-215) translate(7.203703703703695 35.890972222222224)"/><use xlink:href="#I" transform="matrix(1,0,0,1,-828.2393464902998,-215) translate(7.1049382716049365 55.09097222222223)"/><use xlink:href="#J" transform="matrix(1,0,0,1,-828.2393464902998,-215) translate(50.56172839506173 55.09097222222223)"/><use xlink:href="#K" transform="matrix(1,0,0,1,-828.2393464902998,-215) translate(89.08024691358025 55.09097222222223)"/><use xlink:href="#L" transform="matrix(1,0,0,1,-828.2393464902998,-215) translate(8.487654320987659 74.29097222222224)"/><use xlink:href="#M" transform="matrix(1,0,0,1,-828.2393464902998,-215) translate(60.19135802469136 74.29097222222224)"/><path d="M-1080-74a6 6 0 0 1 6-6h148a6 6 0 0 1 6 6V2.93a6 6 0 0 1-6 6h-148a6 6 0 0 1-6-6z" stroke="#000" stroke-opacity="0" stroke-width="2" fill="#5358d3"/><g><use xlink:href="#N" transform="matrix(1,0,0,1,-1068,-68) translate(4.805555555555571 12.444444444444441)"/><use xlink:href="#O" transform="matrix(1,0,0,1,-1068,-68) translate(41.87962962962963 12.444444444444441)"/><use xlink:href="#P" transform="matrix(1,0,0,1,-1068,-68) translate(95.80555555555554 12.444444444444441)"/><use xlink:href="#Q" transform="matrix(1,0,0,1,-1068,-68) translate(12.777777777777786 31.1111111111111)"/><use xlink:href="#R" transform="matrix(1,0,0,1,-1068,-68) translate(38.7037037037037 31.1111111111111)"/><use xlink:href="#S" transform="matrix(1,0,0,1,-1068,-68) translate(18.37345679012347 49.777777777777764)"/><use xlink:href="#T" transform="matrix(1,0,0,1,-1068,-68) translate(56.39814814814815 49.777777777777764)"/><use xlink:href="#U" transform="matrix(1,0,0,1,-1068,-68) translate(100.34259259259258 49.777777777777764)"/><use xlink:href="#V" transform="matrix(1,0,0,1,-1068,-68) translate(39.049382716049394 68.44444444444443)"/></g><path d="M-773-130.57V-116a6 6 0 0 1-6 6h-215a6 6 0 0 0-6 6v7.62" stroke="#3a414a" fill="none"/><path d="M-772.52-130.55h-.96v-.52h.96z" stroke="#3a414a" stroke-width=".05" fill="#3a414a"/><path d="M-1000-81.62l-4.63-14.26h9.26z" stroke="#3a414a" fill="#3a414a"/><path d="M-772.52-116.02l.06.88.2.85.34.8.45.75.56.66.65.57.74.45.8.33.84.2.88.08H-581l1 .07.98.24.93.4.88.52.77.66.67.77.53.86.38.94.24 1 .08.98v8.2h-.95V-104l-.07-.88-.2-.85-.33-.8-.46-.75-.56-.66-.66-.57-.74-.45-.8-.33-.84-.2-.88-.08h-185.98l-1-.07-.98-.24-.94-.4-.87-.52-.78-.66-.66-.77-.53-.86-.4-.94-.23-1-.08-.98v-14.6h.96z" stroke="#3a414a" stroke-width=".05" fill="#3a414a"/><path d="M-772.52-130.55h-.96v-.52h.96z" fill="#3a414a"/><path stroke="#3a414a" stroke-width=".05" fill="#3a414a"/><path d="M-575.02-81.06l-4.64-14.27h9.27z" fill="#3a414a"/><path d="M-575.02-79.53l-5.3-16.28h10.58zm-4-15.33l4 12.26 3.98-12.26z" stroke="#3a414a" stroke-width=".05" fill="#3a414a"/><path d="M-580.27-77.08a10.8 10.8 0 0 1 10.5 0l69.5 38.63a3.33 3.33 0 0 1 0 5.83l-69.5 38.64a10.8 10.8 0 0 1-10.5 0l-69.5-38.64a3.33 3.33 0 0 1 0-5.83z" stroke="#282c33" stroke-width="2" fill="#fff"/><g><use xlink:href="#W" transform="matrix(1,0,0,1,-650.0248494363134,-75) translate(53.20870370370371 25.479166666666664)"/><use xlink:href="#X" transform="matrix(1,0,0,1,-650.0248494363134,-75) translate(22.486481481481505 41.47916666666666)"/><use xlink:href="#Y" transform="matrix(1,0,0,1,-650.0248494363134,-75) translate(98.63462962962961 41.47916666666666)"/><use xlink:href="#Z" transform="matrix(1,0,0,1,-650.0248494363134,-75) translate(48.72722222222223 57.47916666666666)"/></g><path d="M-745.47-880.4l1 .24.93.4.87.52.77.66.66.77.53.86.38.94.24 1 .08.98v17.64h-.95v-17.6l-.07-.88-.2-.85-.34-.8-.45-.75-.57-.66-.66-.57-.74-.45-.8-.33-.85-.2-.88-.07h-367.48l-.88.06-.85.2-.8.34-.75.45-.66.56-.57.65-.45.74-.33.8-.2.84-.08.88v831.43l.08.88.2.84.33.8.45.74.56.67.65.57.74.45.8.32.84.2.88.07h33.48v.94h-33.52l-1-.08-.98-.23-.94-.4-.87-.52-.78-.65-.66-.78-.53-.86-.4-.93-.23-1-.07-.98v-831.52l.07-1 .24-.98.4-.94.52-.87.66-.78.77-.66.86-.53.94-.4 1-.23.98-.08h367.56z" stroke="#3a414a" stroke-width=".05" fill="#3a414a"/><path d="M-1080-36.06h-.5V-37h.5z" fill="#3a414a"/><path stroke="#3a414a" stroke-width=".05" fill="#3a414a"/><path d="M-740.48-841.62l-4.63-14.26h9.26z" fill="#3a414a"/><path d="M-740.48-840.08l-5.3-16.28h10.6zm-3.98-15.33l3.98 12.25 3.98-12.26z" stroke="#3a414a" stroke-width=".05" fill="#3a414a"/><path d="M-745.47-903.4l1 .24.93.4.87.52.77.66.66.77.53.86.38.94.24 1 .08.98v40.64h-.95v-40.6l-.07-.88-.2-.85-.34-.8-.45-.75-.57-.66-.66-.57-.74-.45-.8-.33-.85-.2-.88-.07h-390.48l-.88.06-.85.2-.8.34-.75.45-.66.56-.57.65-.45.74-.33.8-.2.84-.08.88V20.98l.07.88.2.85.34.8.45.75.56.66.65.57.74.45.8.33.84.2.88.07h374.96l.88-.06.85-.2.8-.34.75-.45.66-.56.57-.65.45-.74.33-.8.2-.84.07-.88v-50.53l.08-1 .24-.98.4-.94.52-.87.66-.77.77-.67.86-.53.94-.4 1-.23.98-.08h49.12v.94h-49.08l-.88.07-.85.2-.8.34-.75.46-.66.56-.57.66-.45.74-.33.8-.2.84-.07.88v50.54l-.08 1-.24.98-.4.94-.52.87-.66.78-.77.66-.86.53-.94.4-1 .23-.98.08h-375.04l-1-.08-.98-.24-.94-.4-.87-.52-.78-.66-.66-.77-.53-.86-.4-.94-.23-1-.07-.98v-918.04l.07-1 .24-.98.4-.94.52-.87.66-.78.77-.66.86-.53.94-.4 1-.23.98-.08h390.56zM-653-35.06h-21.28V-36H-653z" stroke="#3a414a" stroke-width=".05" fill="#3a414a"/><path d="M-652.5-35.53l.05.47h-.56V-36h.55z" fill="#3a414a"/><path stroke="#3a414a" stroke-width=".05" fill="#3a414a"/><path d="M-740.48-841.62l-4.63-14.26h9.26z" fill="#3a414a"/><path d="M-740.48-840.08l-5.3-16.28h10.6zm-3.98-15.33l3.98 12.25 3.98-12.26z" stroke="#3a414a" stroke-width=".05" fill="#3a414a"/><g><use xlink:href="#E" transform="matrix(1,0,0,1,-700.8957995913216,-46.19999999999999) translate(0 14.222222222222223)"/></g><path d="M-574.55 102.61l-.95.02V74.35h.95zm0-49.58h-.95V8.88h.95z" stroke="#3a414a" stroke-width=".05" fill="#3a414a"/><path d="M-575.02 8.38l.47-.03v.54h-.95v-.54z" fill="#3a414a"/><path stroke="#3a414a" stroke-width=".05" fill="#3a414a"/><path d="M-575.02 117.38l-4.64-14.27 9.27.02z" fill="#3a414a"/><path d="M-575.02 118.92l-5.3-16.28h10.58zm-4-15.33l4 12.24 3.98-12.25z" stroke="#3a414a" stroke-width=".05" fill="#3a414a"/><g><use xlink:href="#F" transform="matrix(1,0,0,1,-592.8026272140912,53.0229198954857) translate(0 14.222222222222223)"/></g><path d="M-430.9 120c23.47 0 42.5 19.03 42.5 42.5s-19.03 42.5-42.5 42.5h-288.25c-23.47 0-42.5-19.03-42.5-42.5s19.03-42.5 42.5-42.5z" stroke="#282c33" stroke-width="2" fill="#5358d3"/><g><use xlink:href="#aa" transform="matrix(1,0,0,1,-756.6445226886855,125) translate(17.500000000000057 30.62847222222222)"/><use xlink:href="#ab" transform="matrix(1,0,0,1,-756.6445226886855,125) translate(61.89506172839511 30.62847222222222)"/><use xlink:href="#ac" transform="matrix(1,0,0,1,-756.6445226886855,125) translate(134.78395061728398 30.62847222222222)"/><use xlink:href="#ad" transform="matrix(1,0,0,1,-756.6445226886855,125) translate(202.83333333333334 30.62847222222222)"/><use xlink:href="#ae" transform="matrix(1,0,0,1,-756.6445226886855,125) translate(308.0185185185185 30.62847222222222)"/><use xlink:href="#af" transform="matrix(1,0,0,1,-756.6445226886855,125) translate(24.29512345679016 51.96180555555555)"/><use xlink:href="#ag" transform="matrix(1,0,0,1,-756.6445226886855,125) translate(115.0111728395062 51.96180555555555)"/><use xlink:href="#ah" transform="matrix(1,0,0,1,-756.6445226886855,125) translate(136.64080246913582 51.96180555555555)"/><use xlink:href="#ai" transform="matrix(1,0,0,1,-756.6445226886855,125) translate(250.0235185185185 51.96180555555555)"/></g><defs><path fill="#333" d="M232-93c-1 65-40 97-104 97C67 4 28-28 28-90v-158h33c8 89-33 224 67 224 102 0 64-133 71-224h33v155" id="aj"/><path fill="#333" d="M135-143c-3-34-86-38-87 0 15 53 115 12 119 90S17 21 10-45l28-5c4 36 97 45 98 0-10-56-113-15-118-90-4-57 82-63 122-42 12 7 21 19 24 35" id="ak"/><path fill="#333" d="M100-194c63 0 86 42 84 106H49c0 40 14 67 53 68 26 1 43-12 49-29l28 8c-11 28-37 45-77 45C44 4 14-33 15-96c1-61 26-98 85-98zm52 81c6-60-76-77-97-28-3 7-6 17-6 28h103" id="al"/><path fill="#333" d="M114-163C36-179 61-72 57 0H25l-1-190h30c1 12-1 29 2 39 6-27 23-49 58-41v29" id="am"/><path fill="#333" d="M117-194c89-4 53 116 60 194h-32v-121c0-31-8-49-39-48C34-167 62-67 57 0H25l-1-190h30c1 10-1 24 2 32 11-22 29-35 61-36" id="an"/><path fill="#333" d="M141-36C126-15 110 5 73 4 37 3 15-17 15-53c-1-64 63-63 125-63 3-35-9-54-41-54-24 1-41 7-42 31l-33-3c5-37 33-52 76-52 45 0 72 20 72 64v82c-1 20 7 32 28 27v20c-31 9-61-2-59-35zM48-53c0 20 12 33 32 33 41-3 63-29 60-74-43 2-92-5-92 41" id="ao"/><path fill="#333" d="M210-169c-67 3-38 105-44 169h-31v-121c0-29-5-50-35-48C34-165 62-65 56 0H25l-1-190h30c1 10-1 24 2 32 10-44 99-50 107 0 11-21 27-35 58-36 85-2 47 119 55 194h-31v-121c0-29-5-49-35-48" id="ap"/><g id="a"><use transform="matrix(0.030864197530864196,0,0,0.030864197530864196,0,0)" xlink:href="#aj"/><use transform="matrix(0.030864197530864196,0,0,0.030864197530864196,7.993827160493827,0)" xlink:href="#ak"/><use transform="matrix(0.030864197530864196,0,0,0.030864197530864196,13.549382716049383,0)" xlink:href="#al"/><use transform="matrix(0.030864197530864196,0,0,0.030864197530864196,19.72222222222222,0)" xlink:href="#am"/><use transform="matrix(0.030864197530864196,0,0,0.030864197530864196,23.39506172839506,0)" xlink:href="#an"/><use transform="matrix(0.030864197530864196,0,0,0.030864197530864196,29.5679012345679,0)" xlink:href="#ao"/><use transform="matrix(0.030864197530864196,0,0,0.030864197530864196,35.74074074074074,0)" xlink:href="#ap"/><use transform="matrix(0.030864197530864196,0,0,0.030864197530864196,44.96913580246913,0)" xlink:href="#al"/></g><path fill="#333" d="M59-47c-2 24 18 29 38 22v24C64 9 27 4 27-40v-127H5v-23h24l9-43h21v43h35v23H59v120" id="aq"/><g id="b"><use transform="matrix(0.030864197530864196,0,0,0.030864197530864196,0,0)" xlink:href="#ap"/><use transform="matrix(0.030864197530864196,0,0,0.030864197530864196,9.228395061728394,0)" xlink:href="#al"/><use transform="matrix(0.030864197530864196,0,0,0.030864197530864196,15.401234567901234,0)" xlink:href="#al"/><use transform="matrix(0.030864197530864196,0,0,0.030864197530864196,21.574074074074073,0)" xlink:href="#aq"/><use transform="matrix(0.030864197530864196,0,0,0.030864197530864196,24.660493827160494,0)" xlink:href="#ak"/></g><path fill="#333" d="M115-194c55 1 70 41 70 98S169 2 115 4C84 4 66-9 55-30l1 105H24l-1-265h31l2 30c10-21 28-34 59-34zm-8 174c40 0 45-34 45-75s-6-73-45-74c-42 0-51 32-51 76 0 43 10 73 51 73" id="ar"/><path fill="#333" d="M96-169c-40 0-48 33-48 73s9 75 48 75c24 0 41-14 43-38l32 2c-6 37-31 61-74 61-59 0-76-41-82-99-10-93 101-131 147-64 4 7 5 14 7 22l-32 3c-4-21-16-35-41-35" id="as"/><path fill="#333" d="M24-231v-30h32v30H24zM24 0v-190h32V0H24" id="at"/><path fill="#333" d="M101-234c-31-9-42 10-38 44h38v23H63V0H32v-167H5v-23h27c-7-52 17-82 69-68v24" id="au"/><path fill="#333" d="M100-194c62-1 85 37 85 99 1 63-27 99-86 99S16-35 15-95c0-66 28-99 85-99zM99-20c44 1 53-31 53-75 0-43-8-75-51-75s-53 32-53 75 10 74 51 75" id="av"/><path fill="#333" d="M103-251c84 0 111 97 45 133-19 10-37 24-39 52H78c0-63 77-55 77-114 0-30-21-42-52-43-32 0-53 17-56 46l-32-2c7-45 34-72 88-72zM77 0v-35h34V0H77" id="aw"/><g id="c"><use transform="matrix(0.030864197530864196,0,0,0.030864197530864196,0,0)" xlink:href="#ak"/><use transform="matrix(0.030864197530864196,0,0,0.030864197530864196,5.555555555555555,0)" xlink:href="#ar"/><use transform="matrix(0.030864197530864196,0,0,0.030864197530864196,11.728395061728396,0)" xlink:href="#al"/><use transform="matrix(0.030864197530864196,0,0,0.030864197530864196,17.901234567901234,0)" xlink:href="#as"/><use transform="matrix(0.030864197530864196,0,0,0.030864197530864196,23.45679012345679,0)" xlink:href="#at"/><use transform="matrix(0.030864197530864196,0,0,0.030864197530864196,25.895061728395063,0)" xlink:href="#au"/><use transform="matrix(0.030864197530864196,0,0,0.030864197530864196,28.981481481481485,0)" xlink:href="#at"/><use transform="matrix(0.030864197530864196,0,0,0.030864197530864196,31.419753086419757,0)" xlink:href="#as"/><use transform="matrix(0.030864197530864196,0,0,0.030864197530864196,36.97530864197531,0)" xlink:href="#ao"/><use transform="matrix(0.030864197530864196,0,0,0.030864197530864196,43.14814814814815,0)" xlink:href="#aq"/><use transform="matrix(0.030864197530864196,0,0,0.030864197530864196,46.23456790123457,0)" xlink:href="#at"/><use transform="matrix(0.030864197530864196,0,0,0.030864197530864196,48.67283950617284,0)" xlink:href="#av"/><use transform="matrix(0.030864197530864196,0,0,0.030864197530864196,54.845679012345684,0)" xlink:href="#an"/><use transform="matrix(0.030864197530864196,0,0,0.030864197530864196,61.018518518518526,0)" xlink:href="#ak"/><use transform="matrix(0.030864197530864196,0,0,0.030864197530864196,66.57407407407408,0)" xlink:href="#aw"/></g><path fill="#333" d="M175 0L67-191c6 58 2 128 3 191H24v-248h59L193-55c-6-58-2-129-3-193h46V0h-61" id="ax"/><path fill="#333" d="M140-251c80 0 125 45 125 126S219 4 139 4C58 4 15-44 15-125s44-126 125-126zm-1 214c52 0 73-35 73-88 0-50-21-86-72-86-52 0-73 35-73 86s22 88 72 88" id="ay"/><g id="d"><use transform="matrix(0.04320987654320988,0,0,0.04320987654320988,0,0)" xlink:href="#ax"/><use transform="matrix(0.04320987654320988,0,0,0.04320987654320988,11.19135802469136,0)" xlink:href="#ay"/></g><path fill="#fff" d="M185-189c-5-48-123-54-124 2 14 75 158 14 163 119 3 78-121 87-175 55-17-10-28-26-33-46l33-7c5 56 141 63 141-1 0-78-155-14-162-118-5-82 145-84 179-34 5 7 8 16 11 25" id="az"/><path fill="#fff" d="M106-169C34-169 62-67 57 0H25v-261h32l-1 103c12-21 28-36 61-36 89 0 53 116 60 194h-32v-121c2-32-8-49-39-48" id="aA"/><path fill="#fff" d="M100-194c62-1 85 37 85 99 1 63-27 99-86 99S16-35 15-95c0-66 28-99 85-99zM99-20c44 1 53-31 53-75 0-43-8-75-51-75s-53 32-53 75 10 74 51 75" id="aB"/><path fill="#fff" d="M206 0h-36l-40-164L89 0H53L-1-190h32L70-26l43-164h34l41 164 42-164h31" id="aC"/><g id="e"><use transform="matrix(0.04938271604938272,0,0,0.04938271604938272,0,0)" xlink:href="#az"/><use transform="matrix(0.04938271604938272,0,0,0.04938271604938272,11.851851851851853,0)" xlink:href="#aA"/><use transform="matrix(0.04938271604938272,0,0,0.04938271604938272,21.7283950617284,0)" xlink:href="#aB"/><use transform="matrix(0.04938271604938272,0,0,0.04938271604938272,31.60493827160494,0)" xlink:href="#aC"/></g><path fill="#fff" d="M59-47c-2 24 18 29 38 22v24C64 9 27 4 27-40v-127H5v-23h24l9-43h21v43h35v23H59v120" id="aD"/><path fill="#fff" d="M100-194c63 0 86 42 84 106H49c0 40 14 67 53 68 26 1 43-12 49-29l28 8c-11 28-37 45-77 45C44 4 14-33 15-96c1-61 26-98 85-98zm52 81c6-60-76-77-97-28-3 7-6 17-6 28h103" id="aE"/><g id="f"><use transform="matrix(0.04938271604938272,0,0,0.04938271604938272,0,0)" xlink:href="#aD"/><use transform="matrix(0.04938271604938272,0,0,0.04938271604938272,4.938271604938272,0)" xlink:href="#aA"/><use transform="matrix(0.04938271604938272,0,0,0.04938271604938272,14.814814814814817,0)" xlink:href="#aE"/></g><path fill="#fff" d="M24 0v-261h32V0H24" id="aF"/><path fill="#fff" d="M24-231v-30h32v30H24zM24 0v-190h32V0H24" id="aG"/><path fill="#fff" d="M135-143c-3-34-86-38-87 0 15 53 115 12 119 90S17 21 10-45l28-5c4 36 97 45 98 0-10-56-113-15-118-90-4-57 82-63 122-42 12 7 21 19 24 35" id="aH"/><g id="g"><use transform="matrix(0.04938271604938272,0,0,0.04938271604938272,0,0)" xlink:href="#aF"/><use transform="matrix(0.04938271604938272,0,0,0.04938271604938272,3.901234567901235,0)" xlink:href="#aG"/><use transform="matrix(0.04938271604938272,0,0,0.04938271604938272,7.80246913580247,0)" xlink:href="#aH"/><use transform="matrix(0.04938271604938272,0,0,0.04938271604938272,16.69135802469136,0)" xlink:href="#aD"/></g><path fill="#fff" d="M101-234c-31-9-42 10-38 44h38v23H63V0H32v-167H5v-23h27c-7-52 17-82 69-68v24" id="aI"/><g id="h"><use transform="matrix(0.04938271604938272,0,0,0.04938271604938272,0,0)" xlink:href="#aB"/><use transform="matrix(0.04938271604938272,0,0,0.04938271604938272,9.876543209876544,0)" xlink:href="#aI"/></g><path fill="#fff" d="M114-163C36-179 61-72 57 0H25l-1-190h30c1 12-1 29 2 39 6-27 23-49 58-41v29" id="aJ"/><path fill="#fff" d="M145-31C134-9 116 4 85 4 32 4 16-35 15-94c0-59 17-99 70-100 32-1 48 14 60 33 0-11-1-24 2-32h30l-1 268h-32zM93-21c41 0 51-33 51-76s-8-73-50-73c-40 0-46 35-46 75s5 74 45 74" id="aK"/><path fill="#fff" d="M84 4C-5 8 30-112 23-190h32v120c0 31 7 50 39 49 72-2 45-101 50-169h31l1 190h-30c-1-10 1-25-2-33-11 22-28 36-60 37" id="aL"/><path fill="#fff" d="M85-194c31 0 48 13 60 33l-1-100h32l1 261h-30c-2-10 0-23-3-31C134-8 116 4 85 4 32 4 16-35 15-94c0-66 23-100 70-100zm9 24c-40 0-46 34-46 75 0 40 6 74 45 74 42 0 51-32 51-76 0-42-9-74-50-73" id="aM"/><g id="i"><use transform="matrix(0.04938271604938272,0,0,0.04938271604938272,0,0)" xlink:href="#aJ"/><use transform="matrix(0.04938271604938272,0,0,0.04938271604938272,5.8765432098765435,0)" xlink:href="#aE"/><use transform="matrix(0.04938271604938272,0,0,0.04938271604938272,15.753086419753087,0)" xlink:href="#aK"/><use transform="matrix(0.04938271604938272,0,0,0.04938271604938272,25.629629629629633,0)" xlink:href="#aL"/><use transform="matrix(0.04938271604938272,0,0,0.04938271604938272,35.50617283950618,0)" xlink:href="#aG"/><use transform="matrix(0.04938271604938272,0,0,0.04938271604938272,39.40740740740741,0)" xlink:href="#aJ"/><use transform="matrix(0.04938271604938272,0,0,0.04938271604938272,45.283950617283956,0)" xlink:href="#aE"/><use transform="matrix(0.04938271604938272,0,0,0.04938271604938272,55.1604938271605,0)" xlink:href="#aM"/></g><path fill="#fff" d="M115-194c55 1 70 41 70 98S169 2 115 4C84 4 66-9 55-30l1 105H24l-1-265h31l2 30c10-21 28-34 59-34zm-8 174c40 0 45-34 45-75s-6-73-45-74c-42 0-51 32-51 76 0 43 10 73 51 73" id="aN"/><path fill="#fff" d="M96-169c-40 0-48 33-48 73s9 75 48 75c24 0 41-14 43-38l32 2c-6 37-31 61-74 61-59 0-76-41-82-99-10-93 101-131 147-64 4 7 5 14 7 22l-32 3c-4-21-16-35-41-35" id="aO"/><path fill="#fff" d="M141-36C126-15 110 5 73 4 37 3 15-17 15-53c-1-64 63-63 125-63 3-35-9-54-41-54-24 1-41 7-42 31l-33-3c5-37 33-52 76-52 45 0 72 20 72 64v82c-1 20 7 32 28 27v20c-31 9-61-2-59-35zM48-53c0 20 12 33 32 33 41-3 63-29 60-74-43 2-92-5-92 41" id="aP"/><path fill="#fff" d="M117-194c89-4 53 116 60 194h-32v-121c0-31-8-49-39-48C34-167 62-67 57 0H25l-1-190h30c1 10-1 24 2 32 11-22 29-35 61-36" id="aQ"/><g id="j"><use transform="matrix(0.04938271604938272,0,0,0.04938271604938272,0,0)" xlink:href="#aH"/><use transform="matrix(0.04938271604938272,0,0,0.04938271604938272,8.88888888888889,0)" xlink:href="#aN"/><use transform="matrix(0.04938271604938272,0,0,0.04938271604938272,18.765432098765434,0)" xlink:href="#aE"/><use transform="matrix(0.04938271604938272,0,0,0.04938271604938272,28.641975308641978,0)" xlink:href="#aO"/><use transform="matrix(0.04938271604938272,0,0,0.04938271604938272,37.53086419753087,0)" xlink:href="#aG"/><use transform="matrix(0.04938271604938272,0,0,0.04938271604938272,41.4320987654321,0)" xlink:href="#aI"/><use transform="matrix(0.04938271604938272,0,0,0.04938271604938272,46.370370370370374,0)" xlink:href="#aG"/><use transform="matrix(0.04938271604938272,0,0,0.04938271604938272,50.27160493827161,0)" xlink:href="#aO"/><use transform="matrix(0.04938271604938272,0,0,0.04938271604938272,59.1604938271605,0)" xlink:href="#aP"/><use transform="matrix(0.04938271604938272,0,0,0.04938271604938272,69.03703703703704,0)" xlink:href="#aD"/><use transform="matrix(0.04938271604938272,0,0,0.04938271604938272,73.97530864197532,0)" xlink:href="#aG"/><use transform="matrix(0.04938271604938272,0,0,0.04938271604938272,77.87654320987656,0)" xlink:href="#aB"/><use transform="matrix(0.04938271604938272,0,0,0.04938271604938272,87.7530864197531,0)" xlink:href="#aQ"/><use transform="matrix(0.04938271604938272,0,0,0.04938271604938272,97.62962962962965,0)" xlink:href="#aH"/></g><path fill="#fff" d="M169-182c-1-43-94-46-97-3 18 66 151 10 154 114 3 95-165 93-204 36-6-8-10-19-12-30l50-8c3 46 112 56 116 5-17-69-150-10-154-114-4-87 153-88 188-35 5 8 8 18 10 28" id="aR"/><path fill="#fff" d="M25-224v-37h50v37H25zM25 0v-190h50V0H25" id="aS"/><path fill="#fff" d="M195-6C206 82 75 100 31 46c-4-6-6-13-8-21l49-6c3 16 16 24 34 25 40 0 42-37 40-79-11 22-30 35-61 35-53 0-70-43-70-97 0-56 18-96 73-97 30 0 46 14 59 34l2-30h47zm-90-29c32 0 41-27 41-63 0-35-9-62-40-62-32 0-39 29-40 63 0 36 9 62 39 62" id="aT"/><path fill="#fff" d="M135-194c87-1 58 113 63 194h-50c-7-57 23-157-34-157-59 0-34 97-39 157H25l-1-190h47c2 12-1 28 3 38 12-26 28-41 61-42" id="aU"/><g id="k"><use transform="matrix(0.04938271604938272,0,0,0.04938271604938272,0,0)" xlink:href="#aR"/><use transform="matrix(0.04938271604938272,0,0,0.04938271604938272,11.851851851851853,0)" xlink:href="#aS"/><use transform="matrix(0.04938271604938272,0,0,0.04938271604938272,16.790123456790127,0)" xlink:href="#aT"/><use transform="matrix(0.04938271604938272,0,0,0.04938271604938272,27.604938271604947,0)" xlink:href="#aU"/></g><path fill="#fff" d="M238-95c0 69-44 99-111 99C63 4 22-25 22-93v-155h51v151c-1 38 19 59 55 60 90 1 49-130 58-211h52v153" id="aV"/><path fill="#fff" d="M135-194c53 0 70 44 70 98 0 56-19 98-73 100-31 1-45-17-59-34 3 33 2 69 2 105H25l-1-265h48c2 10 0 23 3 31 11-24 29-35 60-35zM114-30c33 0 39-31 40-66 0-38-9-64-40-64-56 0-55 130 0 130" id="aW"/><g id="l"><use transform="matrix(0.04938271604938272,0,0,0.04938271604938272,0,0)" xlink:href="#aV"/><use transform="matrix(0.04938271604938272,0,0,0.04938271604938272,12.790123456790125,0)" xlink:href="#aW"/></g><path fill="#fff" d="M24-248c93 1 206-16 204 79-1 75-69 88-152 82V0H24v-248zm52 121c47 0 100 7 100-41 0-47-54-39-100-39v80" id="aX"/><path fill="#fff" d="M133-34C117-15 103 5 69 4 32 3 11-16 11-54c-1-60 55-63 116-61 1-26-3-47-28-47-18 1-26 9-28 27l-52-2c7-38 36-58 82-57s74 22 75 68l1 82c-1 14 12 18 25 15v27c-30 8-71 5-69-32zm-48 3c29 0 43-24 42-57-32 0-66-3-65 30 0 17 8 27 23 27" id="aY"/><path fill="#fff" d="M185-48c-13 30-37 53-82 52C43 2 14-33 14-96s30-98 90-98c62 0 83 45 84 108H66c0 31 8 55 39 56 18 0 30-7 34-22zm-45-69c5-46-57-63-70-21-2 6-4 13-4 21h74" id="aZ"/><g id="m"><use transform="matrix(0.04938271604938272,0,0,0.04938271604938272,0,0)" xlink:href="#aX"/><use transform="matrix(0.04938271604938272,0,0,0.04938271604938272,11.851851851851853,0)" xlink:href="#aY"/><use transform="matrix(0.04938271604938272,0,0,0.04938271604938272,21.7283950617284,0)" xlink:href="#aT"/><use transform="matrix(0.04938271604938272,0,0,0.04938271604938272,32.543209876543216,0)" xlink:href="#aZ"/></g><path fill="#333" d="M30 0v-248h187v28H63v79h144v27H63v87h162V0H30" id="ba"/><path fill="#333" d="M24 0v-261h32V0H24" id="bb"/><g id="n"><use transform="matrix(0.030864197530864196,0,0,0.030864197530864196,0,0)" xlink:href="#ba"/><use transform="matrix(0.030864197530864196,0,0,0.030864197530864196,7.4074074074074066,0)" xlink:href="#ap"/><use transform="matrix(0.030864197530864196,0,0,0.030864197530864196,16.6358024691358,0)" xlink:href="#ao"/><use transform="matrix(0.030864197530864196,0,0,0.030864197530864196,22.80864197530864,0)" xlink:href="#at"/><use transform="matrix(0.030864197530864196,0,0,0.030864197530864196,25.24691358024691,0)" xlink:href="#bb"/></g><path fill="#333" d="M30-248c87 1 191-15 191 75 0 78-77 80-158 76V0H30v-248zm33 125c57 0 124 11 124-50 0-59-68-47-124-48v98" id="bc"/><path fill="#333" d="M206 0h-36l-40-164L89 0H53L-1-190h32L70-26l43-164h34l41 164 42-164h31" id="bd"/><path fill="#333" d="M85-194c31 0 48 13 60 33l-1-100h32l1 261h-30c-2-10 0-23-3-31C134-8 116 4 85 4 32 4 16-35 15-94c0-66 23-100 70-100zm9 24c-40 0-46 34-46 75 0 40 6 74 45 74 42 0 51-32 51-76 0-42-9-74-50-73" id="be"/><g id="o"><use transform="matrix(0.030864197530864192,0,0,0.030864197530864192,0,0)" xlink:href="#bc"/><use transform="matrix(0.030864197530864192,0,0,0.030864197530864192,7.4074074074074066,0)" xlink:href="#ao"/><use transform="matrix(0.030864197530864192,0,0,0.030864197530864192,13.580246913580245,0)" xlink:href="#ak"/><use transform="matrix(0.030864197530864192,0,0,0.030864197530864192,19.1358024691358,0)" xlink:href="#ak"/><use transform="matrix(0.030864197530864192,0,0,0.030864197530864192,24.691358024691354,0)" xlink:href="#bd"/><use transform="matrix(0.030864197530864192,0,0,0.030864197530864192,32.685185185185176,0)" xlink:href="#av"/><use transform="matrix(0.030864197530864192,0,0,0.030864197530864192,38.85802469135801,0)" xlink:href="#am"/><use transform="matrix(0.030864197530864192,0,0,0.030864197530864192,42.53086419753085,0)" xlink:href="#be"/></g><g id="p"><use transform="matrix(0.030864197530864192,0,0,0.030864197530864192,0,0)" xlink:href="#ap"/><use transform="matrix(0.030864197530864192,0,0,0.030864197530864192,9.228395061728394,0)" xlink:href="#al"/><use transform="matrix(0.030864197530864192,0,0,0.030864197530864192,15.401234567901232,0)" xlink:href="#al"/><use transform="matrix(0.030864197530864192,0,0,0.030864197530864192,21.57407407407407,0)" xlink:href="#aq"/><use transform="matrix(0.030864197530864192,0,0,0.030864197530864192,24.660493827160487,0)" xlink:href="#ak"/></g><g id="q"><use transform="matrix(0.030864197530864192,0,0,0.030864197530864192,0,0)" xlink:href="#ak"/><use transform="matrix(0.030864197530864192,0,0,0.030864197530864192,5.5555555555555545,0)" xlink:href="#ar"/><use transform="matrix(0.030864197530864192,0,0,0.030864197530864192,11.728395061728392,0)" xlink:href="#al"/><use transform="matrix(0.030864197530864192,0,0,0.030864197530864192,17.90123456790123,0)" xlink:href="#as"/><use transform="matrix(0.030864197530864192,0,0,0.030864197530864192,23.456790123456784,0)" xlink:href="#at"/><use transform="matrix(0.030864197530864192,0,0,0.030864197530864192,25.895061728395056,0)" xlink:href="#au"/><use transform="matrix(0.030864197530864192,0,0,0.030864197530864192,28.981481481481474,0)" xlink:href="#at"/><use transform="matrix(0.030864197530864192,0,0,0.030864197530864192,31.419753086419746,0)" xlink:href="#as"/><use transform="matrix(0.030864197530864192,0,0,0.030864197530864192,36.9753086419753,0)" xlink:href="#ao"/><use transform="matrix(0.030864197530864192,0,0,0.030864197530864192,43.14814814814814,0)" xlink:href="#aq"/><use transform="matrix(0.030864197530864192,0,0,0.030864197530864192,46.234567901234556,0)" xlink:href="#at"/><use transform="matrix(0.030864197530864192,0,0,0.030864197530864192,48.67283950617283,0)" xlink:href="#av"/><use transform="matrix(0.030864197530864192,0,0,0.030864197530864192,54.84567901234567,0)" xlink:href="#an"/><use transform="matrix(0.030864197530864192,0,0,0.030864197530864192,61.018518518518505,0)" xlink:href="#ak"/><use transform="matrix(0.030864197530864192,0,0,0.030864197530864192,66.57407407407406,0)" xlink:href="#aw"/></g><path fill="#fff" d="M197 0v-115H63V0H30v-248h33v105h134v-105h34V0h-34" id="bf"/><g id="r"><use transform="matrix(0.04938271604938272,0,0,0.04938271604938272,0,0)" xlink:href="#bf"/><use transform="matrix(0.04938271604938272,0,0,0.04938271604938272,12.790123456790125,0)" xlink:href="#aG"/><use transform="matrix(0.04938271604938272,0,0,0.04938271604938272,16.69135802469136,0)" xlink:href="#aM"/><use transform="matrix(0.04938271604938272,0,0,0.04938271604938272,26.567901234567902,0)" xlink:href="#aE"/></g><path fill="#333" d="M146-102V0H94v-102L6-248h54l60 105 60-105h54" id="bg"/><path fill="#333" d="M24 0v-248h195v40H76v63h132v40H76v65h150V0H24" id="bh"/><path fill="#333" d="M169-182c-1-43-94-46-97-3 18 66 151 10 154 114 3 95-165 93-204 36-6-8-10-19-12-30l50-8c3 46 112 56 116 5-17-69-150-10-154-114-4-87 153-88 188-35 5 8 8 18 10 28" id="bi"/><g id="s"><use transform="matrix(0.04320987654320988,0,0,0.04320987654320988,0,0)" xlink:href="#bg"/><use transform="matrix(0.04320987654320988,0,0,0.04320987654320988,10.370370370370372,0)" xlink:href="#bh"/><use transform="matrix(0.04320987654320988,0,0,0.04320987654320988,20.740740740740744,0)" xlink:href="#bi"/></g><path fill="#333" d="M212-179c-10-28-35-45-73-45-59 0-87 40-87 99 0 60 29 101 89 101 43 0 62-24 78-52l27 14C228-24 195 4 139 4 59 4 22-46 18-125c-6-104 99-153 187-111 19 9 31 26 39 46" id="bj"/><g id="t"><use transform="matrix(0.030864197530864196,0,0,0.030864197530864196,0,0)" xlink:href="#bj"/><use transform="matrix(0.030864197530864196,0,0,0.030864197530864196,7.993827160493827,0)" xlink:href="#av"/><use transform="matrix(0.030864197530864196,0,0,0.030864197530864196,14.166666666666666,0)" xlink:href="#an"/><use transform="matrix(0.030864197530864196,0,0,0.030864197530864196,20.339506172839506,0)" xlink:href="#au"/><use transform="matrix(0.030864197530864196,0,0,0.030864197530864196,23.425925925925927,0)" xlink:href="#at"/><use transform="matrix(0.030864197530864196,0,0,0.030864197530864196,25.8641975308642,0)" xlink:href="#am"/><use transform="matrix(0.030864197530864196,0,0,0.030864197530864196,29.537037037037038,0)" xlink:href="#ap"/></g><g id="u"><use transform="matrix(0.030864197530864196,0,0,0.030864197530864196,0,0)" xlink:href="#bc"/><use transform="matrix(0.030864197530864196,0,0,0.030864197530864196,7.4074074074074066,0)" xlink:href="#ao"/><use transform="matrix(0.030864197530864196,0,0,0.030864197530864196,13.580246913580247,0)" xlink:href="#ak"/><use transform="matrix(0.030864197530864196,0,0,0.030864197530864196,19.135802469135804,0)" xlink:href="#ak"/><use transform="matrix(0.030864197530864196,0,0,0.030864197530864196,24.69135802469136,0)" xlink:href="#bd"/><use transform="matrix(0.030864197530864196,0,0,0.030864197530864196,32.68518518518519,0)" xlink:href="#av"/><use transform="matrix(0.030864197530864196,0,0,0.030864197530864196,38.85802469135803,0)" xlink:href="#am"/><use transform="matrix(0.030864197530864196,0,0,0.030864197530864196,42.530864197530875,0)" xlink:href="#be"/></g><path fill="#333" d="M106-169C34-169 62-67 57 0H25v-261h32l-1 103c12-21 28-36 61-36 89 0 53 116 60 194h-32v-121c2-32-8-49-39-48" id="bk"/><g id="v"><use transform="matrix(0.030864197530864196,0,0,0.030864197530864196,0,0)" xlink:href="#ap"/><use transform="matrix(0.030864197530864196,0,0,0.030864197530864196,9.228395061728394,0)" xlink:href="#ao"/><use transform="matrix(0.030864197530864196,0,0,0.030864197530864196,15.401234567901234,0)" xlink:href="#aq"/><use transform="matrix(0.030864197530864196,0,0,0.030864197530864196,18.487654320987655,0)" xlink:href="#as"/><use transform="matrix(0.030864197530864196,0,0,0.030864197530864196,24.04320987654321,0)" xlink:href="#bk"/><use transform="matrix(0.030864197530864196,0,0,0.030864197530864196,30.216049382716047,0)" xlink:href="#al"/><use transform="matrix(0.030864197530864196,0,0,0.030864197530864196,36.388888888888886,0)" xlink:href="#ak"/></g><g id="w"><use transform="matrix(0.030864197530864196,0,0,0.030864197530864196,0,0)" xlink:href="#bc"/><use transform="matrix(0.030864197530864196,0,0,0.030864197530864196,7.4074074074074066,0)" xlink:href="#ao"/><use transform="matrix(0.030864197530864196,0,0,0.030864197530864196,13.580246913580247,0)" xlink:href="#ak"/><use transform="matrix(0.030864197530864196,0,0,0.030864197530864196,19.135802469135804,0)" xlink:href="#ak"/><use transform="matrix(0.030864197530864196,0,0,0.030864197530864196,24.69135802469136,0)" xlink:href="#bd"/><use transform="matrix(0.030864197530864196,0,0,0.030864197530864196,32.68518518518519,0)" xlink:href="#av"/><use transform="matrix(0.030864197530864196,0,0,0.030864197530864196,38.85802469135803,0)" xlink:href="#am"/><use transform="matrix(0.030864197530864196,0,0,0.030864197530864196,42.530864197530875,0)" xlink:href="#be"/><use transform="matrix(0.030864197530864196,0,0,0.030864197530864196,48.70370370370372,0)" xlink:href="#aw"/></g><path fill="#fff" d="M212-179c-10-28-35-45-73-45-59 0-87 40-87 99 0 60 29 101 89 101 43 0 62-24 78-52l27 14C228-24 195 4 139 4 59 4 22-46 18-125c-6-104 99-153 187-111 19 9 31 26 39 46" id="bl"/><g id="x"><use transform="matrix(0.03703703703703702,0,0,0.03703703703703702,0,0)" xlink:href="#bl"/><use transform="matrix(0.03703703703703702,0,0,0.03703703703703702,9.592592592592588,0)" xlink:href="#aJ"/><use transform="matrix(0.03703703703703702,0,0,0.03703703703703702,13.999999999999991,0)" xlink:href="#aE"/><use transform="matrix(0.03703703703703702,0,0,0.03703703703703702,21.407407407407398,0)" xlink:href="#aP"/><use transform="matrix(0.03703703703703702,0,0,0.03703703703703702,28.814814814814802,0)" xlink:href="#aD"/><use transform="matrix(0.03703703703703702,0,0,0.03703703703703702,32.518518518518505,0)" xlink:href="#aE"/></g><path fill="#fff" d="M205 0l-28-72H64L36 0H1l101-248h38L239 0h-34zm-38-99l-47-123c-12 45-31 82-46 123h93" id="bm"/><g id="y"><use transform="matrix(0.03703703703703702,0,0,0.03703703703703702,0,0)" xlink:href="#bm"/><use transform="matrix(0.03703703703703702,0,0,0.03703703703703702,8.888888888888886,0)" xlink:href="#aO"/><use transform="matrix(0.03703703703703702,0,0,0.03703703703703702,15.555555555555552,0)" xlink:href="#aO"/><use transform="matrix(0.03703703703703702,0,0,0.03703703703703702,22.222222222222214,0)" xlink:href="#aB"/><use transform="matrix(0.03703703703703702,0,0,0.03703703703703702,29.629629629629623,0)" xlink:href="#aL"/><use transform="matrix(0.03703703703703702,0,0,0.03703703703703702,37.037037037037024,0)" xlink:href="#aQ"/><use transform="matrix(0.03703703703703702,0,0,0.03703703703703702,44.44444444444443,0)" xlink:href="#aD"/></g><path fill="#fff" d="M160-131c35 5 61 23 61 61C221 17 115-2 30 0v-248c76 3 177-17 177 60 0 33-19 50-47 57zm-97-11c50-1 110 9 110-42 0-47-63-36-110-37v79zm0 115c55-2 124 14 124-45 0-56-70-42-124-44v89" id="bn"/><g id="z"><use transform="matrix(0.03703703703703702,0,0,0.03703703703703702,0,0)" xlink:href="#bn"/><use transform="matrix(0.03703703703703702,0,0,0.03703703703703702,8.888888888888886,0)" xlink:href="#aL"/><use transform="matrix(0.03703703703703702,0,0,0.03703703703703702,16.29629629629629,0)" xlink:href="#aD"/><use transform="matrix(0.03703703703703702,0,0,0.03703703703703702,19.999999999999993,0)" xlink:href="#aD"/><use transform="matrix(0.03703703703703702,0,0,0.03703703703703702,23.703703703703695,0)" xlink:href="#aB"/><use transform="matrix(0.03703703703703702,0,0,0.03703703703703702,31.111111111111104,0)" xlink:href="#aQ"/></g><path fill="#fff" d="M143 0L79-87 56-68V0H24v-261h32v163l83-92h37l-77 82L181 0h-38" id="bo"/><g id="A"><use transform="matrix(0.03703703703703702,0,0,0.03703703703703702,0,0)" xlink:href="#bl"/><use transform="matrix(0.03703703703703702,0,0,0.03703703703703702,9.592592592592588,0)" xlink:href="#aF"/><use transform="matrix(0.03703703703703702,0,0,0.03703703703703702,12.51851851851851,0)" xlink:href="#aG"/><use transform="matrix(0.03703703703703702,0,0,0.03703703703703702,15.444444444444436,0)" xlink:href="#aO"/><use transform="matrix(0.03703703703703702,0,0,0.03703703703703702,22.1111111111111,0)" xlink:href="#bo"/><use transform="matrix(0.03703703703703702,0,0,0.03703703703703702,28.777777777777764,0)" xlink:href="#aE"/><use transform="matrix(0.03703703703703702,0,0,0.03703703703703702,36.18518518518517,0)" xlink:href="#aM"/></g><path fill="#3a414a" d="M205 0l-28-72H64L36 0H1l101-248h38L239 0h-34zm-38-99l-47-123c-12 45-31 82-46 123h93" id="bp"/><path fill="#3a414a" d="M24 0v-261h32V0H24" id="bq"/><g id="B"><use transform="matrix(0.03703703703703702,0,0,0.03703703703703702,0,0)" xlink:href="#bp"/><use transform="matrix(0.03703703703703702,0,0,0.03703703703703702,8.888888888888886,0)" xlink:href="#bq"/><use transform="matrix(0.03703703703703702,0,0,0.03703703703703702,11.81481481481481,0)" xlink:href="#bq"/></g><path fill="#3a414a" d="M135-143c-3-34-86-38-87 0 15 53 115 12 119 90S17 21 10-45l28-5c4 36 97 45 98 0-10-56-113-15-118-90-4-57 82-63 122-42 12 7 21 19 24 35" id="br"/><path fill="#3a414a" d="M115-194c55 1 70 41 70 98S169 2 115 4C84 4 66-9 55-30l1 105H24l-1-265h31l2 30c10-21 28-34 59-34zm-8 174c40 0 45-34 45-75s-6-73-45-74c-42 0-51 32-51 76 0 43 10 73 51 73" id="bs"/><path fill="#3a414a" d="M100-194c63 0 86 42 84 106H49c0 40 14 67 53 68 26 1 43-12 49-29l28 8c-11 28-37 45-77 45C44 4 14-33 15-96c1-61 26-98 85-98zm52 81c6-60-76-77-97-28-3 7-6 17-6 28h103" id="bt"/><path fill="#3a414a" d="M96-169c-40 0-48 33-48 73s9 75 48 75c24 0 41-14 43-38l32 2c-6 37-31 61-74 61-59 0-76-41-82-99-10-93 101-131 147-64 4 7 5 14 7 22l-32 3c-4-21-16-35-41-35" id="bu"/><path fill="#3a414a" d="M24-231v-30h32v30H24zM24 0v-190h32V0H24" id="bv"/><path fill="#3a414a" d="M101-234c-31-9-42 10-38 44h38v23H63V0H32v-167H5v-23h27c-7-52 17-82 69-68v24" id="bw"/><path fill="#3a414a" d="M141-36C126-15 110 5 73 4 37 3 15-17 15-53c-1-64 63-63 125-63 3-35-9-54-41-54-24 1-41 7-42 31l-33-3c5-37 33-52 76-52 45 0 72 20 72 64v82c-1 20 7 32 28 27v20c-31 9-61-2-59-35zM48-53c0 20 12 33 32 33 41-3 63-29 60-74-43 2-92-5-92 41" id="bx"/><path fill="#3a414a" d="M59-47c-2 24 18 29 38 22v24C64 9 27 4 27-40v-127H5v-23h24l9-43h21v43h35v23H59v120" id="by"/><path fill="#3a414a" d="M100-194c62-1 85 37 85 99 1 63-27 99-86 99S16-35 15-95c0-66 28-99 85-99zM99-20c44 1 53-31 53-75 0-43-8-75-51-75s-53 32-53 75 10 74 51 75" id="bz"/><path fill="#3a414a" d="M117-194c89-4 53 116 60 194h-32v-121c0-31-8-49-39-48C34-167 62-67 57 0H25l-1-190h30c1 10-1 24 2 32 11-22 29-35 61-36" id="bA"/><g id="C"><use transform="matrix(0.03703703703703702,0,0,0.03703703703703702,0,0)" xlink:href="#br"/><use transform="matrix(0.03703703703703702,0,0,0.03703703703703702,6.666666666666663,0)" xlink:href="#bs"/><use transform="matrix(0.03703703703703702,0,0,0.03703703703703702,14.074074074074067,0)" xlink:href="#bt"/><use transform="matrix(0.03703703703703702,0,0,0.03703703703703702,21.481481481481474,0)" xlink:href="#bu"/><use transform="matrix(0.03703703703703702,0,0,0.03703703703703702,28.148148148148135,0)" xlink:href="#bv"/><use transform="matrix(0.03703703703703702,0,0,0.03703703703703702,31.074074074074055,0)" xlink:href="#bw"/><use transform="matrix(0.03703703703703702,0,0,0.03703703703703702,34.77777777777776,0)" xlink:href="#bv"/><use transform="matrix(0.03703703703703702,0,0,0.03703703703703702,37.70370370370368,0)" xlink:href="#bu"/><use transform="matrix(0.03703703703703702,0,0,0.03703703703703702,44.370370370370345,0)" xlink:href="#bx"/><use transform="matrix(0.03703703703703702,0,0,0.03703703703703702,51.77777777777775,0)" xlink:href="#by"/><use transform="matrix(0.03703703703703702,0,0,0.03703703703703702,55.48148148148145,0)" xlink:href="#bv"/><use transform="matrix(0.03703703703703702,0,0,0.03703703703703702,58.407407407407376,0)" xlink:href="#bz"/><use transform="matrix(0.03703703703703702,0,0,0.03703703703703702,65.81481481481478,0)" xlink:href="#bA"/><use transform="matrix(0.03703703703703702,0,0,0.03703703703703702,73.22222222222219,0)" xlink:href="#br"/></g><path fill="#3a414a" d="M210-169c-67 3-38 105-44 169h-31v-121c0-29-5-50-35-48C34-165 62-65 56 0H25l-1-190h30c1 10-1 24 2 32 10-44 99-50 107 0 11-21 27-35 58-36 85-2 47 119 55 194h-31v-121c0-29-5-49-35-48" id="bB"/><path fill="#3a414a" d="M103-251c84 0 111 97 45 133-19 10-37 24-39 52H78c0-63 77-55 77-114 0-30-21-42-52-43-32 0-53 17-56 46l-32-2c7-45 34-72 88-72zM77 0v-35h34V0H77" id="bC"/><g id="D"><use transform="matrix(0.03703703703703702,0,0,0.03703703703703702,0,0)" xlink:href="#bB"/><use transform="matrix(0.03703703703703702,0,0,0.03703703703703702,11.074074074074069,0)" xlink:href="#bt"/><use transform="matrix(0.03703703703703702,0,0,0.03703703703703702,18.481481481481474,0)" xlink:href="#by"/><use transform="matrix(0.03703703703703702,0,0,0.03703703703703702,22.185185185185176,0)" xlink:href="#bC"/></g><g id="E"><use transform="matrix(0.04938271604938272,0,0,0.04938271604938272,0,0)" xlink:href="#ax"/><use transform="matrix(0.04938271604938272,0,0,0.04938271604938272,12.790123456790125,0)" xlink:href="#ay"/></g><g id="F"><use transform="matrix(0.04938271604938272,0,0,0.04938271604938272,0,0)" xlink:href="#bg"/><use transform="matrix(0.04938271604938272,0,0,0.04938271604938272,11.851851851851853,0)" xlink:href="#bh"/><use transform="matrix(0.04938271604938272,0,0,0.04938271604938272,23.703703703703706,0)" xlink:href="#bi"/></g><path fill="#fff" d="M110-160c48 1 74 30 74 79 0 53-28 85-80 85-65 0-83-55-86-122-5-90 50-162 133-122 14 7 22 21 27 39l-31 6c-5-40-67-38-82-6-9 19-15 44-15 74 11-20 30-34 60-33zm-7 138c34 0 49-23 49-58s-16-56-50-56c-29 0-50 16-49 49 1 36 15 65 50 65" id="bD"/><path fill="#fff" d="M16-82v-28h88v28H16" id="bE"/><path fill="#fff" d="M177-190C167-65 218 103 67 71c-23-6-38-20-44-43l32-5c15 47 100 32 89-28v-30C133-14 115 1 83 1 29 1 15-40 15-95c0-56 16-97 71-98 29-1 48 16 59 35 1-10 0-23 2-32h30zM94-22c36 0 50-32 50-73 0-42-14-75-50-75-39 0-46 34-46 75s6 73 46 73" id="bF"/><g id="G"><use transform="matrix(0.04938271604938272,0,0,0.04938271604938272,0,0)" xlink:href="#bD"/><use transform="matrix(0.04938271604938272,0,0,0.04938271604938272,9.876543209876544,0)" xlink:href="#bE"/><use transform="matrix(0.04938271604938272,0,0,0.04938271604938272,15.753086419753087,0)" xlink:href="#aM"/><use transform="matrix(0.04938271604938272,0,0,0.04938271604938272,25.629629629629633,0)" xlink:href="#aG"/><use transform="matrix(0.04938271604938272,0,0,0.04938271604938272,29.530864197530867,0)" xlink:href="#bF"/><use transform="matrix(0.04938271604938272,0,0,0.04938271604938272,39.40740740740741,0)" xlink:href="#aG"/><use transform="matrix(0.04938271604938272,0,0,0.04938271604938272,43.308641975308646,0)" xlink:href="#aD"/></g><path fill="#fff" d="M210-169c-67 3-38 105-44 169h-31v-121c0-29-5-50-35-48C34-165 62-65 56 0H25l-1-190h30c1 10-1 24 2 32 10-44 99-50 107 0 11-21 27-35 58-36 85-2 47 119 55 194h-31v-121c0-29-5-49-35-48" id="bG"/><g id="H"><use transform="matrix(0.04938271604938272,0,0,0.04938271604938272,0,0)" xlink:href="#aO"/><use transform="matrix(0.04938271604938272,0,0,0.04938271604938272,8.88888888888889,0)" xlink:href="#aB"/><use transform="matrix(0.04938271604938272,0,0,0.04938271604938272,18.765432098765434,0)" xlink:href="#aQ"/><use transform="matrix(0.04938271604938272,0,0,0.04938271604938272,28.641975308641978,0)" xlink:href="#aI"/><use transform="matrix(0.04938271604938272,0,0,0.04938271604938272,33.580246913580254,0)" xlink:href="#aG"/><use transform="matrix(0.04938271604938272,0,0,0.04938271604938272,37.48148148148149,0)" xlink:href="#aJ"/><use transform="matrix(0.04938271604938272,0,0,0.04938271604938272,43.35802469135803,0)" xlink:href="#bG"/><use transform="matrix(0.04938271604938272,0,0,0.04938271604938272,58.12345679012347,0)" xlink:href="#aP"/><use transform="matrix(0.04938271604938272,0,0,0.04938271604938272,68.00000000000001,0)" xlink:href="#aD"/><use transform="matrix(0.04938271604938272,0,0,0.04938271604938272,72.93827160493828,0)" xlink:href="#aG"/><use transform="matrix(0.04938271604938272,0,0,0.04938271604938272,76.83950617283952,0)" xlink:href="#aB"/><use transform="matrix(0.04938271604938272,0,0,0.04938271604938272,86.71604938271606,0)" xlink:href="#aQ"/></g><g id="I"><use transform="matrix(0.04938271604938272,0,0,0.04938271604938272,0,0)" xlink:href="#aO"/><use transform="matrix(0.04938271604938272,0,0,0.04938271604938272,8.88888888888889,0)" xlink:href="#aB"/><use transform="matrix(0.04938271604938272,0,0,0.04938271604938272,18.765432098765434,0)" xlink:href="#aM"/><use transform="matrix(0.04938271604938272,0,0,0.04938271604938272,28.641975308641978,0)" xlink:href="#aE"/></g><g id="J"><use transform="matrix(0.04938271604938272,0,0,0.04938271604938272,0,0)" xlink:href="#aH"/><use transform="matrix(0.04938271604938272,0,0,0.04938271604938272,8.88888888888889,0)" xlink:href="#aE"/><use transform="matrix(0.04938271604938272,0,0,0.04938271604938272,18.765432098765434,0)" xlink:href="#aQ"/><use transform="matrix(0.04938271604938272,0,0,0.04938271604938272,28.641975308641978,0)" xlink:href="#aD"/></g><g id="K"><use transform="matrix(0.04938271604938272,0,0,0.04938271604938272,0,0)" xlink:href="#aD"/><use transform="matrix(0.04938271604938272,0,0,0.04938271604938272,4.938271604938272,0)" xlink:href="#aB"/></g><path fill="#fff" d="M47-170H22l-4-78h33" id="bH"/><g id="L"><use transform="matrix(0.04938271604938272,0,0,0.04938271604938272,0,0)" xlink:href="#aL"/><use transform="matrix(0.04938271604938272,0,0,0.04938271604938272,9.876543209876544,0)" xlink:href="#aH"/><use transform="matrix(0.04938271604938272,0,0,0.04938271604938272,18.765432098765434,0)" xlink:href="#aE"/><use transform="matrix(0.04938271604938272,0,0,0.04938271604938272,28.641975308641978,0)" xlink:href="#aJ"/><use transform="matrix(0.04938271604938272,0,0,0.04938271604938272,34.51851851851852,0)" xlink:href="#bH"/><use transform="matrix(0.04938271604938272,0,0,0.04938271604938272,37.876543209876544,0)" xlink:href="#aH"/></g><g id="M"><use transform="matrix(0.04938271604938272,0,0,0.04938271604938272,0,0)" xlink:href="#aE"/><use transform="matrix(0.04938271604938272,0,0,0.04938271604938272,9.876543209876544,0)" xlink:href="#bG"/><use transform="matrix(0.04938271604938272,0,0,0.04938271604938272,24.641975308641978,0)" xlink:href="#aP"/><use transform="matrix(0.04938271604938272,0,0,0.04938271604938272,34.51851851851852,0)" xlink:href="#aG"/><use transform="matrix(0.04938271604938272,0,0,0.04938271604938272,38.41975308641975,0)" xlink:href="#aF"/></g><path fill="#fff" d="M232-93c-1 65-40 97-104 97C67 4 28-28 28-90v-158h33c8 89-33 224 67 224 102 0 64-133 71-224h33v155" id="bI"/><g id="N"><use transform="matrix(0.04320987654320986,0,0,0.04320987654320986,0,0)" xlink:href="#bI"/><use transform="matrix(0.04320987654320986,0,0,0.04320987654320986,11.191358024691354,0)" xlink:href="#aH"/><use transform="matrix(0.04320987654320986,0,0,0.04320987654320986,18.96913580246913,0)" xlink:href="#aE"/><use transform="matrix(0.04320987654320986,0,0,0.04320987654320986,27.6111111111111,0)" xlink:href="#aJ"/></g><g id="O"><use transform="matrix(0.04320987654320986,0,0,0.04320987654320986,0,0)" xlink:href="#aM"/><use transform="matrix(0.04320987654320986,0,0,0.04320987654320986,8.641975308641973,0)" xlink:href="#aB"/><use transform="matrix(0.04320987654320986,0,0,0.04320987654320986,17.283950617283946,0)" xlink:href="#aE"/><use transform="matrix(0.04320987654320986,0,0,0.04320987654320986,25.925925925925917,0)" xlink:href="#aH"/><use transform="matrix(0.04320987654320986,0,0,0.04320987654320986,33.703703703703695,0)" xlink:href="#aQ"/><use transform="matrix(0.04320987654320986,0,0,0.04320987654320986,42.34567901234567,0)" xlink:href="#bH"/><use transform="matrix(0.04320987654320986,0,0,0.04320987654320986,45.28395061728394,0)" xlink:href="#aD"/></g><g id="P"><use transform="matrix(0.04320987654320986,0,0,0.04320987654320986,0,0)" xlink:href="#aE"/><use transform="matrix(0.04320987654320986,0,0,0.04320987654320986,8.641975308641973,0)" xlink:href="#aQ"/><use transform="matrix(0.04320987654320986,0,0,0.04320987654320986,17.283950617283946,0)" xlink:href="#aD"/><use transform="matrix(0.04320987654320986,0,0,0.04320987654320986,21.604938271604933,0)" xlink:href="#aE"/><use transform="matrix(0.04320987654320986,0,0,0.04320987654320986,30.2469135802469,0)" xlink:href="#aJ"/></g><g id="Q"><use transform="matrix(0.04320987654320986,0,0,0.04320987654320986,0,0)" xlink:href="#aD"/><use transform="matrix(0.04320987654320986,0,0,0.04320987654320986,4.320987654320986,0)" xlink:href="#aA"/><use transform="matrix(0.04320987654320986,0,0,0.04320987654320986,12.962962962962958,0)" xlink:href="#aE"/></g><g id="R"><use transform="matrix(0.04320987654320986,0,0,0.04320987654320986,0,0)" xlink:href="#aO"/><use transform="matrix(0.04320987654320986,0,0,0.04320987654320986,7.777777777777775,0)" xlink:href="#aB"/><use transform="matrix(0.04320987654320986,0,0,0.04320987654320986,16.419753086419746,0)" xlink:href="#aQ"/><use transform="matrix(0.04320987654320986,0,0,0.04320987654320986,25.06172839506172,0)" xlink:href="#aI"/><use transform="matrix(0.04320987654320986,0,0,0.04320987654320986,29.38271604938271,0)" xlink:href="#aG"/><use transform="matrix(0.04320987654320986,0,0,0.04320987654320986,32.79629629629629,0)" xlink:href="#aJ"/><use transform="matrix(0.04320987654320986,0,0,0.04320987654320986,37.938271604938265,0)" xlink:href="#bG"/><use transform="matrix(0.04320987654320986,0,0,0.04320987654320986,50.85802469135802,0)" xlink:href="#aP"/><use transform="matrix(0.04320987654320986,0,0,0.04320987654320986,59.499999999999986,0)" xlink:href="#aD"/><use transform="matrix(0.04320987654320986,0,0,0.04320987654320986,63.82098765432097,0)" xlink:href="#aG"/><use transform="matrix(0.04320987654320986,0,0,0.04320987654320986,67.23456790123456,0)" xlink:href="#aB"/><use transform="matrix(0.04320987654320986,0,0,0.04320987654320986,75.87654320987653,0)" xlink:href="#aQ"/></g><g id="S"><use transform="matrix(0.04320987654320986,0,0,0.04320987654320986,0,0)" xlink:href="#aO"/><use transform="matrix(0.04320987654320986,0,0,0.04320987654320986,7.777777777777775,0)" xlink:href="#aB"/><use transform="matrix(0.04320987654320986,0,0,0.04320987654320986,16.419753086419746,0)" xlink:href="#aM"/><use transform="matrix(0.04320987654320986,0,0,0.04320987654320986,25.06172839506172,0)" xlink:href="#aE"/></g><g id="T"><use transform="matrix(0.04320987654320986,0,0,0.04320987654320986,0,0)" xlink:href="#aC"/><use transform="matrix(0.04320987654320986,0,0,0.04320987654320986,11.191358024691354,0)" xlink:href="#aG"/><use transform="matrix(0.04320987654320986,0,0,0.04320987654320986,14.604938271604933,0)" xlink:href="#aD"/><use transform="matrix(0.04320987654320986,0,0,0.04320987654320986,18.92592592592592,0)" xlink:href="#aA"/><use transform="matrix(0.04320987654320986,0,0,0.04320987654320986,27.56790123456789,0)" xlink:href="#aG"/><use transform="matrix(0.04320987654320986,0,0,0.04320987654320986,30.98148148148147,0)" xlink:href="#aQ"/></g><path fill="#fff" d="M101-251c68 0 85 55 85 127S166 4 100 4C33 4 14-52 14-124c0-73 17-127 87-127zm-1 229c47 0 54-49 54-102s-4-102-53-102c-51 0-55 48-55 102 0 53 5 102 54 102" id="bJ"/><g id="U"><use transform="matrix(0.04320987654320986,0,0,0.04320987654320986,0,0)" xlink:href="#bD"/><use transform="matrix(0.04320987654320986,0,0,0.04320987654320986,8.641975308641973,0)" xlink:href="#bJ"/></g><g id="V"><use transform="matrix(0.04320987654320986,0,0,0.04320987654320986,0,0)" xlink:href="#aH"/><use transform="matrix(0.04320987654320986,0,0,0.04320987654320986,7.777777777777775,0)" xlink:href="#aE"/><use transform="matrix(0.04320987654320986,0,0,0.04320987654320986,16.419753086419746,0)" xlink:href="#aO"/><use transform="matrix(0.04320987654320986,0,0,0.04320987654320986,24.19753086419752,0)" xlink:href="#aB"/><use transform="matrix(0.04320987654320986,0,0,0.04320987654320986,32.83950617283949,0)" xlink:href="#aQ"/><use transform="matrix(0.04320987654320986,0,0,0.04320987654320986,41.48148148148147,0)" xlink:href="#aM"/><use transform="matrix(0.04320987654320986,0,0,0.04320987654320986,50.12345679012344,0)" xlink:href="#aH"/></g><path fill="#3a414a" d="M212-179c-10-28-35-45-73-45-59 0-87 40-87 99 0 60 29 101 89 101 43 0 62-24 78-52l27 14C228-24 195 4 139 4 59 4 22-46 18-125c-6-104 99-153 187-111 19 9 31 26 39 46" id="bK"/><path fill="#3a414a" d="M114-163C36-179 61-72 57 0H25l-1-190h30c1 12-1 29 2 39 6-27 23-49 58-41v29" id="bL"/><g id="W"><use transform="matrix(0.03703703703703702,0,0,0.03703703703703702,0,0)" xlink:href="#bK"/><use transform="matrix(0.03703703703703702,0,0,0.03703703703703702,9.592592592592588,0)" xlink:href="#bz"/><use transform="matrix(0.03703703703703702,0,0,0.03703703703703702,16.999999999999993,0)" xlink:href="#bL"/><use transform="matrix(0.03703703703703702,0,0,0.03703703703703702,21.407407407407398,0)" xlink:href="#bL"/><use transform="matrix(0.03703703703703702,0,0,0.03703703703703702,25.814814814814802,0)" xlink:href="#bt"/><use transform="matrix(0.03703703703703702,0,0,0.03703703703703702,33.22222222222221,0)" xlink:href="#bu"/><use transform="matrix(0.03703703703703702,0,0,0.03703703703703702,39.88888888888887,0)" xlink:href="#by"/></g><g id="X"><use transform="matrix(0.03703703703703702,0,0,0.03703703703703702,0,0)" xlink:href="#bu"/><use transform="matrix(0.03703703703703702,0,0,0.03703703703703702,6.666666666666663,0)" xlink:href="#bz"/><use transform="matrix(0.03703703703703702,0,0,0.03703703703703702,14.074074074074067,0)" xlink:href="#bA"/><use transform="matrix(0.03703703703703702,0,0,0.03703703703703702,21.481481481481474,0)" xlink:href="#bw"/><use transform="matrix(0.03703703703703702,0,0,0.03703703703703702,25.185185185185173,0)" xlink:href="#bv"/><use transform="matrix(0.03703703703703702,0,0,0.03703703703703702,28.111111111111097,0)" xlink:href="#bL"/><use transform="matrix(0.03703703703703702,0,0,0.03703703703703702,32.518518518518505,0)" xlink:href="#bB"/><use transform="matrix(0.03703703703703702,0,0,0.03703703703703702,43.592592592592574,0)" xlink:href="#bx"/><use transform="matrix(0.03703703703703702,0,0,0.03703703703703702,50.99999999999998,0)" xlink:href="#by"/><use transform="matrix(0.03703703703703702,0,0,0.03703703703703702,54.70370370370368,0)" xlink:href="#bv"/><use transform="matrix(0.03703703703703702,0,0,0.03703703703703702,57.629629629629605,0)" xlink:href="#bz"/><use transform="matrix(0.03703703703703702,0,0,0.03703703703703702,65.03703703703701,0)" xlink:href="#bA"/></g><path fill="#3a414a" d="M85-194c31 0 48 13 60 33l-1-100h32l1 261h-30c-2-10 0-23-3-31C134-8 116 4 85 4 32 4 16-35 15-94c0-66 23-100 70-100zm9 24c-40 0-46 34-46 75 0 40 6 74 45 74 42 0 51-32 51-76 0-42-9-74-50-73" id="bM"/><g id="Y"><use transform="matrix(0.03703703703703702,0,0,0.03703703703703702,0,0)" xlink:href="#bu"/><use transform="matrix(0.03703703703703702,0,0,0.03703703703703702,6.666666666666663,0)" xlink:href="#bz"/><use transform="matrix(0.03703703703703702,0,0,0.03703703703703702,14.074074074074067,0)" xlink:href="#bM"/><use transform="matrix(0.03703703703703702,0,0,0.03703703703703702,21.481481481481474,0)" xlink:href="#bt"/></g><g id="Z"><use transform="matrix(0.03703703703703702,0,0,0.03703703703703702,0,0)" xlink:href="#bt"/><use transform="matrix(0.03703703703703702,0,0,0.03703703703703702,7.407407407407404,0)" xlink:href="#bA"/><use transform="matrix(0.03703703703703702,0,0,0.03703703703703702,14.814814814814808,0)" xlink:href="#by"/><use transform="matrix(0.03703703703703702,0,0,0.03703703703703702,18.51851851851851,0)" xlink:href="#bt"/><use transform="matrix(0.03703703703703702,0,0,0.03703703703703702,25.925925925925913,0)" xlink:href="#bL"/><use transform="matrix(0.03703703703703702,0,0,0.03703703703703702,30.333333333333314,0)" xlink:href="#bt"/><use transform="matrix(0.03703703703703702,0,0,0.03703703703703702,37.74074074074072,0)" xlink:href="#bM"/><use transform="matrix(0.03703703703703702,0,0,0.03703703703703702,45.14814814814812,0)" xlink:href="#bC"/></g><path fill="#fff" d="M137-138c1-29-70-34-71-4 15 46 118 7 119 86 1 83-164 76-172 9l43-7c4 19 20 25 44 25 33 8 57-30 24-41C81-84 22-81 20-136c-2-80 154-74 161-7" id="bN"/><path fill="#fff" d="M135-150c-39-12-60 13-60 57V0H25l-1-190h47c2 13-1 29 3 40 6-28 27-53 61-41v41" id="bO"/><g id="aa"><use transform="matrix(0.049382716049382706,0,0,0.049382716049382706,0,0)" xlink:href="#aV"/><use transform="matrix(0.049382716049382706,0,0,0.049382716049382706,12.790123456790122,0)" xlink:href="#bN"/><use transform="matrix(0.049382716049382706,0,0,0.049382716049382706,22.666666666666664,0)" xlink:href="#aZ"/><use transform="matrix(0.049382716049382706,0,0,0.049382716049382706,32.5432098765432,0)" xlink:href="#bO"/></g><path fill="#fff" d="M190-63c-7 42-38 67-86 67-59 0-84-38-90-98-12-110 154-137 174-36l-49 2c-2-19-15-32-35-32-30 0-35 28-38 64-6 74 65 87 74 30" id="bP"/><path fill="#fff" d="M110-194c64 0 96 36 96 99 0 64-35 99-97 99-61 0-95-36-95-99 0-62 34-99 96-99zm-1 164c35 0 45-28 45-65 0-40-10-65-43-65-34 0-45 26-45 65 0 36 10 65 43 65" id="bQ"/><path fill="#fff" d="M85 4C-2 5 27-109 22-190h50c7 57-23 150 33 157 60-5 35-97 40-157h50l1 190h-47c-2-12 1-28-3-38-12 25-28 42-61 42" id="bR"/><path fill="#fff" d="M115-3C79 11 28 4 28-45v-112H4v-33h27l15-45h31v45h36v33H77v99c-1 23 16 31 38 25v30" id="bS"/><g id="ab"><use transform="matrix(0.049382716049382706,0,0,0.049382716049382706,0,0)" xlink:href="#aY"/><use transform="matrix(0.049382716049382706,0,0,0.049382716049382706,9.87654320987654,0)" xlink:href="#bP"/><use transform="matrix(0.049382716049382706,0,0,0.049382716049382706,19.75308641975308,0)" xlink:href="#bP"/><use transform="matrix(0.049382716049382706,0,0,0.049382716049382706,29.629629629629623,0)" xlink:href="#bQ"/><use transform="matrix(0.049382716049382706,0,0,0.049382716049382706,40.444444444444436,0)" xlink:href="#bR"/><use transform="matrix(0.049382716049382706,0,0,0.049382716049382706,51.25925925925925,0)" xlink:href="#aU"/><use transform="matrix(0.049382716049382706,0,0,0.049382716049382706,62.07407407407406,0)" xlink:href="#bS"/></g><path fill="#fff" d="M88-194c31-1 46 15 58 34l-1-101h50l1 261h-48c-2-10 0-23-3-31C134-8 116 4 84 4 32 4 16-41 15-95c0-56 19-97 73-99zm17 164c33 0 40-30 41-66 1-37-9-64-41-64s-38 30-39 65c0 43 13 65 39 65" id="bT"/><g id="ac"><use transform="matrix(0.049382716049382706,0,0,0.049382716049382706,0,0)" xlink:href="#bP"/><use transform="matrix(0.049382716049382706,0,0,0.049382716049382706,9.87654320987654,0)" xlink:href="#bO"/><use transform="matrix(0.049382716049382706,0,0,0.049382716049382706,16.79012345679012,0)" xlink:href="#aZ"/><use transform="matrix(0.049382716049382706,0,0,0.049382716049382706,26.66666666666666,0)" xlink:href="#aY"/><use transform="matrix(0.049382716049382706,0,0,0.049382716049382706,36.5432098765432,0)" xlink:href="#bS"/><use transform="matrix(0.049382716049382706,0,0,0.049382716049382706,42.419753086419746,0)" xlink:href="#aZ"/><use transform="matrix(0.049382716049382706,0,0,0.049382716049382706,52.29629629629628,0)" xlink:href="#bT"/></g><path fill="#fff" d="M121-226c-27-7-43 5-38 36h38v33H83V0H34v-157H6v-33h28c-9-59 32-81 87-68v32" id="bU"/><path fill="#fff" d="M25 0v-261h50V0H25" id="bV"/><path fill="#fff" d="M123 10C108 53 80 86 19 72V37c35 8 53-11 59-39L3-190h52l48 148c12-52 28-100 44-148h51" id="bW"/><path fill="#fff" d="M76-54c-1 42 2 86-19 110H24C36 42 46 24 48 0H25v-54h51" id="bX"/><g id="ad"><use transform="matrix(0.049382716049382706,0,0,0.049382716049382706,0,0)" xlink:href="#bN"/><use transform="matrix(0.049382716049382706,0,0,0.049382716049382706,9.87654320987654,0)" xlink:href="#bR"/><use transform="matrix(0.049382716049382706,0,0,0.049382716049382706,20.691358024691354,0)" xlink:href="#bP"/><use transform="matrix(0.049382716049382706,0,0,0.049382716049382706,30.567901234567895,0)" xlink:href="#bP"/><use transform="matrix(0.049382716049382706,0,0,0.049382716049382706,40.444444444444436,0)" xlink:href="#aZ"/><use transform="matrix(0.049382716049382706,0,0,0.049382716049382706,50.32098765432097,0)" xlink:href="#bN"/><use transform="matrix(0.049382716049382706,0,0,0.049382716049382706,60.19753086419752,0)" xlink:href="#bU"/><use transform="matrix(0.049382716049382706,0,0,0.049382716049382706,66.07407407407406,0)" xlink:href="#bR"/><use transform="matrix(0.049382716049382706,0,0,0.049382716049382706,76.88888888888887,0)" xlink:href="#bV"/><use transform="matrix(0.049382716049382706,0,0,0.049382716049382706,81.82716049382714,0)" xlink:href="#bV"/><use transform="matrix(0.049382716049382706,0,0,0.049382716049382706,86.7654320987654,0)" xlink:href="#bW"/><use transform="matrix(0.049382716049382706,0,0,0.049382716049382706,95.30864197530862,0)" xlink:href="#bX"/></g><g id="ae"><use transform="matrix(0.049382716049382706,0,0,0.049382716049382706,0,0)" xlink:href="#bR"/><use transform="matrix(0.049382716049382706,0,0,0.049382716049382706,10.814814814814813,0)" xlink:href="#bN"/><use transform="matrix(0.049382716049382706,0,0,0.049382716049382706,20.691358024691354,0)" xlink:href="#aZ"/><use transform="matrix(0.049382716049382706,0,0,0.049382716049382706,30.567901234567895,0)" xlink:href="#bO"/></g><g id="af"><use transform="matrix(0.049382716049382706,0,0,0.049382716049382706,0,0)" xlink:href="#bO"/><use transform="matrix(0.049382716049382706,0,0,0.049382716049382706,6.913580246913579,0)" xlink:href="#aZ"/><use transform="matrix(0.049382716049382706,0,0,0.049382716049382706,16.79012345679012,0)" xlink:href="#bT"/><use transform="matrix(0.049382716049382706,0,0,0.049382716049382706,27.604938271604933,0)" xlink:href="#aS"/><use transform="matrix(0.049382716049382706,0,0,0.049382716049382706,32.5432098765432,0)" xlink:href="#bO"/><use transform="matrix(0.049382716049382706,0,0,0.049382716049382706,39.456790123456784,0)" xlink:href="#aZ"/><use transform="matrix(0.049382716049382706,0,0,0.049382716049382706,49.33333333333333,0)" xlink:href="#bP"/><use transform="matrix(0.049382716049382706,0,0,0.049382716049382706,59.20987654320987,0)" xlink:href="#bS"/><use transform="matrix(0.049382716049382706,0,0,0.049382716049382706,65.08641975308642,0)" xlink:href="#aZ"/><use transform="matrix(0.049382716049382706,0,0,0.049382716049382706,74.96296296296296,0)" xlink:href="#bT"/></g><g id="ag"><use transform="matrix(0.049382716049382706,0,0,0.049382716049382706,0,0)" xlink:href="#bS"/><use transform="matrix(0.049382716049382706,0,0,0.049382716049382706,5.876543209876542,0)" xlink:href="#bQ"/></g><path fill="#fff" d="M12 0v-35l95-120H19v-35h142v35L67-36h103V0H12" id="bY"/><g id="ah"><use transform="matrix(0.049382716049382706,0,0,0.049382716049382706,0,0)" xlink:href="#aW"/><use transform="matrix(0.049382716049382706,0,0,0.049382716049382706,10.814814814814813,0)" xlink:href="#aZ"/><use transform="matrix(0.049382716049382706,0,0,0.049382716049382706,20.691358024691354,0)" xlink:href="#bO"/><use transform="matrix(0.049382716049382706,0,0,0.049382716049382706,27.604938271604933,0)" xlink:href="#bN"/><use transform="matrix(0.049382716049382706,0,0,0.049382716049382706,37.481481481481474,0)" xlink:href="#bQ"/><use transform="matrix(0.049382716049382706,0,0,0.049382716049382706,48.29629629629629,0)" xlink:href="#aU"/><use transform="matrix(0.049382716049382706,0,0,0.049382716049382706,59.1111111111111,0)" xlink:href="#aY"/><use transform="matrix(0.049382716049382706,0,0,0.049382716049382706,68.98765432098764,0)" xlink:href="#bV"/><use transform="matrix(0.049382716049382706,0,0,0.049382716049382706,73.92592592592591,0)" xlink:href="#aS"/><use transform="matrix(0.049382716049382706,0,0,0.049382716049382706,78.86419753086417,0)" xlink:href="#bY"/><use transform="matrix(0.049382716049382706,0,0,0.049382716049382706,87.75308641975306,0)" xlink:href="#aZ"/><use transform="matrix(0.049382716049382706,0,0,0.049382716049382706,97.6296296296296,0)" xlink:href="#bT"/></g><path fill="#fff" d="M114-157C55-157 80-60 75 0H25v-261h50l-1 109c12-26 28-41 61-42 86-1 58 113 63 194h-50c-7-57 23-157-34-157" id="bZ"/><path fill="#fff" d="M220-157c-53 9-28 100-34 157h-49v-107c1-27-5-49-29-50C55-147 81-57 75 0H25l-1-190h47c2 12-1 28 3 38 10-53 101-56 108 0 13-22 24-43 59-42 82 1 51 116 57 194h-49v-107c-1-25-5-48-29-50" id="ca"/><g id="ai"><use transform="matrix(0.049382716049382706,0,0,0.049382716049382706,0,0)" xlink:href="#bZ"/><use transform="matrix(0.049382716049382706,0,0,0.049382716049382706,10.814814814814813,0)" xlink:href="#bQ"/><use transform="matrix(0.049382716049382706,0,0,0.049382716049382706,21.629629629629626,0)" xlink:href="#ca"/><use transform="matrix(0.049382716049382706,0,0,0.049382716049382706,37.432098765432094,0)" xlink:href="#aZ"/><use transform="matrix(0.049382716049382706,0,0,0.049382716049382706,47.30864197530863,0)" xlink:href="#aW"/><use transform="matrix(0.049382716049382706,0,0,0.049382716049382706,58.12345679012345,0)" xlink:href="#aY"/><use transform="matrix(0.049382716049382706,0,0,0.049382716049382706,67.99999999999999,0)" xlink:href="#aT"/><use transform="matrix(0.049382716049382706,0,0,0.049382716049382706,78.8148148148148,0)" xlink:href="#aZ"/></g></defs></g></svg>